<?xml version="1.0" encoding="utf-8"?>
<!-- Generator: Adobe Illustrator 23.0.2, SVG Export Plug-In . SVG Version: 6.00 Build 0)  -->
<svg version="1.2" baseProfile="tiny" id="Layer_1" xmlns="http://www.w3.org/2000/svg" xmlns:xlink="http://www.w3.org/1999/xlink"
	 x="0px" y="0px" viewBox="0 0 110 110" xml:space="preserve">
<path fill="#FFFFFF" d="M88.35,30.34c4.47,4.47,7.84,9.58,10.13,15.33c2.19,5.66,3.31,11.43,3.35,17.31
	c0.05,5.88-1.07,11.7-3.35,17.45c-2.28,5.75-5.66,10.86-10.13,15.33c-4.65,4.65-9.85,8.12-15.6,10.4
	c-5.75,2.28-11.63,3.42-17.65,3.42s-11.95-1.19-17.79-3.56c-5.84-2.19-11.04-5.56-15.6-10.13s-7.94-9.67-10.13-15.33
	c-2.28-5.75-3.42-11.59-3.42-17.51s1.09-11.72,3.28-17.38c2.28-5.75,5.7-10.9,10.26-15.46L49.08,2.83c1.64-1.64,3.63-2.44,5.95-2.39
	c2.33,0.05,4.26,0.84,5.82,2.39L88.35,30.34z"/>
<rect fill="none" width="110" height="110"/>
</svg>
