<?xml version="1.0" encoding="utf-8"?>
<!-- Generator: Adobe Illustrator 22.1.0, SVG Export Plug-In . SVG Version: 6.00 Build 0)  -->
<svg version="1.2" baseProfile="tiny" id="Layer_1" xmlns="http://www.w3.org/2000/svg" xmlns:xlink="http://www.w3.org/1999/xlink"
	 x="0px" y="0px" viewBox="0 0 48 48" xml:space="preserve">
<g>
	<path fill="#112FAA" d="M30.179472,21.0398769c1.5549984,1.6562786,2.9301929,3.1760654,4.1253529,4.5590534
		c1.5796623,1.8279057,3.8975525,1.9913559,5.5866547,0.6952972c1.6841164-1.2922173,2.0728798-3.5398178,0.5970726-5.2747746
		c-0.2606773-0.3064365-3.2269211-4.0386887-4.3447609-5.3506994c-1.1130066-1.3062983-2.1404953-2.4175463-3.1219368-3.3531742
		c-2.1668606-2.065733-4.021513-3.2054291-5.6768169-3.2054291c-6.0576134,0-10.76548,0-14.1305199,0l0.231142-0.400342
		c0.3371401-0.58393,0.137064-1.3306017-0.4468651-1.6677227L8.2409849,4.295156
		C7.6570554,3.9580159,6.9104028,4.1580915,6.5732627,4.7420206l-6.409503,11.1015701
		c-0.337121,0.5839281-0.1370456,1.3306017,0.4468645,1.6677217l4.7578292,2.7469292
		c0.5839295,0.337122,1.3305821,0.1370659,1.6677222-0.4468632l0.5364132-0.9290943
		c0.6628551,0.7574291,1.432148,1.5908604,2.3118725,2.5036564c1.5229197,1.5801601,3.7577772,2.6437397,5.8013096,2.6437397
		h4.2609644h3.5292149c0.57411,0,0.8970337,0,1.2134838,0h1.6403618c0.0004787,0,0.0009556-0.0000763,0.0014324-0.0000763
		c0.0229855,0,0.043045,0,0.0667171,0C28.226902,24.0056248,29.7538719,22.7400799,30.179472,21.0398769z M5.7554407,18.3670788
		l-3.7005169-2.1364822L7.8539977,6.1863008l3.7005172,2.1365008L5.7554407,18.3670788z M19.9467354,22.1983929H15.685771
		c-1.5156403,0-3.2877378-0.8433456-4.4827261-2.083271c-1.051466-1.0909767-1.9372463-2.0611858-2.66082-2.9122906
		l3.6150188-6.2614136h15.1877937c1.0384369,0,2.5661888,0.9388371,4.4132004,2.6996422
		c0.9298,0.8863926,1.9164219,1.9534302,2.9916172,3.2153645c1.0909767,1.280468,4.0566101,5.0119553,4.3438072,5.3495922
		c0.7591667,0.8924675,0.5762482,1.9499722-0.3169632,2.6353321c-0.9388008,0.7203445-2.1579781,0.634388-3.0863075-0.4398136
		c-1.7179298-1.9879341-3.7980709-4.2489471-6.2374744-6.7814159c-0.7262859-0.9276028-1.8536777-1.5259953-3.1231213-1.5259953
		h-6.1042881c-0.5056915,0-0.9156437,0.4099331-0.9156437,0.9156437c0,0.5056915,0.4099522,0.9156437,0.9156437,0.9156437h6.1042881
		c0.6366997,0,1.2067013,0.2800522,1.5981197,0.7218914c0.018877,0.0277996,0.0338173,0.0559597,0.0563622,0.0833778
		c0.3090553,0.375618,0.4802227,0.8438625,0.4815407,1.3408413c-0.0052528,1.1755009-0.9593182,2.1268711-2.1360226,2.1268711
		H19.9467354z"/>
	<path fill="#112FAA" d="M38.1243401,32.8827744c-5.6466064-0.1079903-10.2684727,4.6215134-10.2684727,10.2691498v0.0000038
		c0,0.3958168,0.3208733,0.7166901,0.7166882,0.7166901h18.7107582C47.6791267,43.868618,48,43.5477448,48,43.1519279v-0.1989555
		C48,37.4559288,43.5963364,32.9874229,38.1243401,32.8827744z M30.0953407,42.0373306
		c-0.1894436,0-0.3398228-0.1676941-0.3108501-0.354908c0.610981-3.9480133,4.0242863-6.9702377,8.1434536-6.9702377
		s7.5324554,3.0222244,8.1434326,6.9702377c0.0289726,0.1872139-0.1214066,0.354908-0.3108482,0.354908H30.0953407z"/>
	<path fill="#112FAA" d="M35.6270676,31.6600399h4.6017303c0.414917,0,0.7512703-0.3363552,0.7512703-0.7512684v-0.0000858
		c0-0.4149151-0.3363533-0.7512684-0.7512703-0.7512684h-4.6017303c-0.4149132,0-0.7512665,0.3363533-0.7512665,0.7512684v0.0000858
		C34.8758011,31.3236847,35.2121544,31.6600399,35.6270676,31.6600399z"/>
</g>
</svg>
