<?xml version="1.0" encoding="utf-8"?>
<!-- Generator: Adobe Illustrator 22.1.0, SVG Export Plug-In . SVG Version: 6.00 Build 0)  -->
<svg version="1.2" baseProfile="tiny" id="Layer_1" xmlns="http://www.w3.org/2000/svg" xmlns:xlink="http://www.w3.org/1999/xlink"
	 x="0px" y="0px" viewBox="0 0 48 48" xml:space="preserve">
<g>
	<path fill="#EDC006" d="M120.9780731,223.4394684l-6.2475967-0.8102417l-1.6643982-4.0950928
		c-0.1373596-0.3374634-0.3005447-0.6638336-0.4880905-0.9761963c3.4503555-0.1946411,6.0896378-3.1494904,5.8949966-6.5998383
		c-0.1946411-3.4503632-3.149498-6.0896454-6.5998459-5.8950043c-3.4503555,0.1946411-6.0896378,3.1494904-5.8949966,6.5998535
		c0.016716,0.296402,0.054512,0.5912323,0.1130905,0.8822784c-0.0796432,0.007309-0.1596298-0.0097046-0.2294006-0.0488129
		c-2.6024323-1.3948669-5.3256989-2.5514679-8.1365128-3.4557037l-0.7028503-0.2294006
		c-1.2461319-0.4039154-2.6135025-0.0780792-3.5435562,0.8444061l-5.9937897,5.9059296
		c-1.3535461,1.307724-1.4644165,3.4398499-0.2538071,4.8809204c1.2772522,1.4685364,3.5031509,1.6236115,4.9716873,0.3463593
		c0.0559235-0.048645,0.1103058-0.0990448,0.1630478-0.1511078l4.3928452-4.3440399l2.1231995,1.112854l-3.4556961,5.3006897
		l-0.0292816,0.0488129c-0.5339127,0.9107361-0.8776169,1.9202728-1.0103531,2.9676056l-6.8772354,6.3012848l-6.1792603-2.2501068
		c-1.9643555-0.7286835-4.1625748,0.1350555-5.1054535,2.0060577c-0.4949265,1.0237427-0.5286789,2.2102356-0.0927353,3.2604675
		c0.4308472,1.048233,1.2829895,1.8667145,2.3477249,2.2549896l8.575798,3.1237946
		c0.4440155,0.1625977,0.9133377,0.2452087,1.3861847,0.2440491c0.9646454,0.0033417,1.897728-0.3435364,2.6259384-0.9761963
		l7.1847305-5.2665253l3.3385544,4.2464142l-3.9340286,8.56604c-0.7964096,1.6550903-0.3978958,3.6376953,0.9761887,4.8565216
		c0.4958191,0.4291687,1.0889511,0.7307739,1.7278519,0.8785706c0.160881,0.0363159,0.3239059,0.0623932,0.4880905,0.0780945
		c0.1446991,0.0077209,0.2897034,0.0077209,0.4344025,0c1.5728378-0.000412,3.0011063-0.9176331,3.6558151-2.3477325
		l4.983429-10.9088745c0.5984344-1.3038635,0.4551392-2.8280182-0.375824-3.9974823l-3.4849854-6.5697479l2.0792694-3.6362915
		l0.7614288,1.5570221c0.4249878,1.0862274,1.3612366,1.8908234,2.4990387,2.1476135
		c0.1122589,0.0243988,0.2245178,0.0439301,0.3270187,0.0585632l8.4196091,1.093338
		c0.9662323,0.1410675,1.9469986-0.1338348,2.6991577-0.756546c0.7546082-0.6085663,1.2229767-1.5028839,1.2934418-2.4697571
		C124.2352066,225.3252106,122.8572617,223.6793365,120.9780731,223.4394684z M89.5741653,237.750351l-0.0976181,0.0780945
		c-0.379776,0.3422089-0.9037018,0.4754791-1.4008331,0.356308l-0.1854706-0.0536804l-8.575798-3.1286774
		c-0.4186783-0.1533203-0.7535019-0.4757385-0.922493-0.8883362c-0.174408-0.4148712-0.1601639-0.885025,0.0390472-1.288559
		c0.4016571-0.7364502,1.2863312-1.0619354,2.0695114-0.7614288l6.8723526,2.5039063
		c0.4264755,0.1556091,0.9040756,0.0615997,1.2397537-0.2440338l6.0084305-5.4861755
		c0.2793732,0.9775085,0.746933,1.8910675,1.3764191,2.6893921l0.7516632,0.9761963L89.5741653,237.750351z
		 M121.3002167,227.7883759c-0.228447,0.1931305-0.5290222,0.2785034-0.8248825,0.2342834l-8.4440079-1.0982056h-0.0976181
		c-0.3569946-0.0799255-0.6491623-0.3353424-0.776062-0.6784515c-0.0143127-0.0382385-0.0306091-0.0757141-0.0488129-0.1122589
		l-1.7961807-3.675354c-0.2954559-0.6056976-1.0259857-0.857193-1.6316833-0.5617371
		c-0.2209244,0.1077728-0.4041595,0.2797394-0.5256882,0.4934082l-3.5435638,6.2036591
		c-0.2014618,0.3662262-0.2014618,0.8100891,0,1.1763153l3.8461761,7.2433014
		c0.0323563,0.0616455,0.0699158,0.1204376,0.1122589,0.175705c0.336998,0.4575195,0.395134,1.0632782,0.1513138,1.5765533
		l-5.0224762,10.9235077c-0.2909622,0.6132355-0.9351273,0.9782715-1.6107101,0.9127502l-0.1805954-0.0292969
		c-0.2539978-0.0583191-0.4901123-0.1772156-0.6882095-0.3465424c-0.5314026-0.5042419-0.6719513-1.2960358-0.34655-1.9523773
		l4.2464142-9.2737579c0.1908188-0.4163971,0.1323853-0.9045715-0.1513062-1.2641602l-6.0572357-7.7070007
		c-1.3612137-1.7165527-1.529808-4.0924377-0.4246445-5.984024l4.1829605-6.4086609
		c0.3745193-0.560257,0.2239532-1.3180542-0.3363113-1.6925812c-0.0378799-0.0253143-0.0771484-0.0485077-0.1176224-0.0694275
		l-4.0999756-2.1476135c-0.4711227-0.2466125-1.047699-0.159729-1.4252319,0.2147675l-5.0371246,4.9736633
		c-0.2655716,0.2621155-0.646492,0.3706818-1.0103531,0.2879791c-0.2242508-0.0505829-0.4262238-0.1721039-0.5759506-0.3465576
		c-0.37043-0.4717102-0.3128738-1.1496124,0.1317902-1.552124l5.993782-5.9156952
		c0.2841568-0.2825012,0.7024384-0.38237,1.0835648-0.2586823l0.7028503,0.2294006
		c2.6694717,0.8612518,5.2555237,1.962326,7.7265167,3.2897491c1.1340561,0.6165771,2.5421066,0.3832397,3.4166489-0.5661926
		c0.4460831-0.4811707,0.6088943-1.1601563,0.4295197-1.7913055c-0.1983414-0.7273254-0.1745453-1.4973602,0.0683365-2.2110596
		c0.5901337-1.6782227,2.2517853-2.7349091,4.0218887-2.5576019c2.0896759,0.2328796,3.5949097,2.1156921,3.36203,4.205368
		c-0.0159836,0.1434631-0.040123,0.2859039-0.0722885,0.4266357c-0.4292068,1.855423-2.1648941,3.1071167-4.060936,2.9285583
		l-0.4392776-0.0878601c-0.9489594-0.1897736-1.8720856,0.4256592-2.0618591,1.3746033
		c-0.1121063,0.5605621,0.056282,1.1405792,0.451149,1.5539551c0.4196701,0.4368896,0.7511215,0.9506378,0.976181,1.513092
		l1.9523773,4.7589111c0.1657257,0.408493,0.5389023,0.6958313,0.976181,0.7516632l6.9553299,0.9029694
		c0.5997238,0.0625458,1.0550385,0.5684509,1.0542831,1.1714172c-0.0235825,0.3063202-0.1783981,0.5874786-0.4246368,0.7711945
		L121.3002167,227.7883759z"/>
	<path fill="#EDC006" d="M77.0496979,219.1344757h4.7003326c0.6739197,0,1.2202301-0.5463104,1.2202301-1.2202301
		s-0.5463104-1.2202301-1.2202301-1.2202301h-4.7003326c-0.6739197,0-1.2202377,0.5463104-1.2202377,1.2202301
		S76.3757782,219.1344757,77.0496979,219.1344757z"/>
	<path fill="#EDC006" d="M81.0471802,212.144989h4.7003326c0.6739197,0,1.2202301-0.5463104,1.2202301-1.2202301
		s-0.5463104-1.2202301-1.2202301-1.2202301h-4.7003326c-0.6739197,0-1.2202377,0.5463104-1.2202377,1.2202301
		S80.3732605,212.144989,81.0471802,212.144989z"/>
	<path fill="#EDC006" d="M79.8269424,224.8988647c0,0.6739197,0.5463181,1.2202301,1.2202377,1.2202301h4.7003326
		c0.6739197,0,1.2202301-0.5463104,1.2202301-1.2202301s-0.5463104-1.2202301-1.2202301-1.2202301h-4.7003326
		C80.3732605,223.6786346,79.8269424,224.2249451,79.8269424,224.8988647z"/>
</g>
<path fill="#5C2DB8" d="M39.6763,0H8.3237009C3.7266648,0,0,3.7266393,0,8.3236752v6.6589098v4.1618509V39.6763
	C0,44.2733345,3.7266648,48,8.3237009,48H39.6763C44.2733612,48,48,44.2733345,48,39.6763V8.3236752
	C48,3.7266393,44.2733612,0,39.6763,0z M4.1618505,8.3236752c0-2.2948346,1.8670158-4.1618247,4.1618505-4.1618247H39.6763
	c2.2948341,0,4.16185,1.8669901,4.16185,4.1618247v6.6589098h-39.6763V8.3236752z M39.6763,43.83815H8.3237009
	c-2.2948346,0-4.1618505-1.8670158-4.1618505-4.16185V19.1444359h39.6763V39.6763
	C43.83815,41.9711342,41.9711342,43.83815,39.6763,43.83815z"/>
</svg>
