<?xml version="1.0" encoding="utf-8"?>
<!-- Generator: Adobe Illustrator 22.1.0, SVG Export Plug-In . SVG Version: 6.00 Build 0)  -->
<svg version="1.2" baseProfile="tiny" id="Layer_1" xmlns="http://www.w3.org/2000/svg" xmlns:xlink="http://www.w3.org/1999/xlink"
	 x="0px" y="0px" viewBox="0 0 48 48" xml:space="preserve">
<path fill="#EDC006" d="M23.9504452,0c-2.3986225,0-4.3637028,1.9650815-4.3637028,4.3637028
	C12.2183142,6.2237792,6.6559048,12.6903791,6.0353985,20.7275887H3.7683184c-0.0340726-0.0015984-0.0682015-0.0015984-0.1022742,0
	c-0.5622146,0.0529881-0.9910865,0.5262241-0.9886515,1.0909252v3.8182411
	c0.0000603,0.6024761,0.4884491,1.0908661,1.0909257,1.0909252h40.364254
	c0.6024742-0.0000591,1.0908661-0.4884491,1.0909233-1.0909252v-3.8182411
	c-0.0000572-0.6024761-0.4884491-1.0908642-1.0909233-1.0909252H8.2002039
	c0.7206144-8.4133444,7.4831963-14.7274971,15.7502413-14.7274971c7.2555618,0,13.3455334,4.8714247,15.2218227,11.7444973
	c0.09618,0.5948353,0.6563644,0.9990749,1.2511978,0.9028931c0.5948372-0.0961838,0.9990768-0.6563644,0.9028931-1.2511997
	c-0.0118294-0.0731697-0.0310898-0.1449394-0.0574684-0.214201C39.531929,10.8193855,34.5709343,5.9192848,28.3141479,4.3466573
	C28.3047447,1.9558781,26.3433094,0,23.9504452,0z M23.9504452,2.1818514c1.0799866,0,1.9374695,0.7422268,2.1307144,1.7557087
	c-0.6975937-0.0829225-1.4112167-0.1193199-2.1307144-0.1193199c-0.720602,0-1.432188,0.0530472-2.1307144,0.1363657
	C22.0066795,2.9326899,22.8646317,2.1818514,23.9504452,2.1818514z M4.8592443,22.909441h38.1823997v1.6363888H4.8592443V22.909441z
	 M24.4959068,28.364069c-1.4933319,0-2.727314,1.2339821-2.727314,2.727314c0,0.8094635,0.3577881,1.5677738,0.8863773,2.0113964
	c0.5285892,0.4436188,1.1279907,0.6200905,1.6704807,0.6988716c0.0113621,0.0001793,0.022728,0.0001793,0.03409,0
	l2.9489098,0.3750076l-2.642086,0.6647835l-10.1081085-5.7273617c-0.0797043-0.0506725-0.1656532-0.0907822-0.2556858-0.1193199
	c-0.2265863-0.0607777-0.4729862-0.085228-0.7159204-0.085228c-1.4933329,0-2.727314,1.2339802-2.727314,2.727314
	c0,0.8663044,0.418807,1.6494961,1.0568342,2.1477604c0.005619,0.0057411,0.011301,0.0114288,0.017046,0.0170441l10.824028,7.994442
	c0.1886463,0.1353722,0.4155598,0.2070274,0.6477375,0.2045479h8.4717197l11.7615433,5.8807716
	c0.5371971,0.2729492,1.1939507,0.0587311,1.4668961-0.4784622c0.0776405-0.1528053,0.118187-0.3217506,0.1183548-0.493145
	V33.8186989c-0.0007439-0.4572563-0.2865372-0.8655319-0.7159195-1.0227432l-12.0001831-4.3637028
	c-0.1200294-0.0445557-0.2469711-0.0676365-0.3750038-0.0681839H24.4959068z M24.4959068,30.5459213h7.4489784l11.0967598,4.0398331
	v10.5512962l-10.4149323-5.1989403c-0.1530762-0.0781555-0.3224525-0.1190376-0.4943237-0.1193199h-8.3524017l-10.5342512-7.7558022
	l-0.017046-0.0170441c-0.1183395-0.1001396-0.1875029-0.235611-0.1875029-0.4090977
	c0-0.3141727,0.2312899-0.5454636,0.5454626-0.5454636c0.012579,0,0.0220041-0.0007629,0.0340919,0l10.3297033,5.8637257
	c0.2488518,0.1398087,0.5425854,0.1765251,0.8181934,0.1022758l8.7274055-2.1818542
	c0.5804367-0.1617813,0.9198189-0.7634735,0.7580338-1.3439102c-0.1160164-0.4162407-0.4667625-0.7247925-0.8943977-0.7868004
	l-8.7103615-1.1079731c-0.007555-0.001091-0.0095997,0.0011444-0.017046,0
	c-0.2838097-0.0444298-0.5051212-0.1420803-0.5795536-0.2045479c-0.0763874-0.0641079-0.1022739-0.0580807-0.1022739-0.3409157
	C23.9504452,30.7772121,24.181736,30.5459213,24.4959068,30.5459213z"/>
</svg>
