<?xml version="1.0" encoding="utf-8"?>
<!-- Generator: Adobe Illustrator 22.1.0, SVG Export Plug-In . SVG Version: 6.00 Build 0)  -->
<svg version="1.2" baseProfile="tiny" id="Layer_1" xmlns="http://www.w3.org/2000/svg" xmlns:xlink="http://www.w3.org/1999/xlink"
	 x="0px" y="0px" viewBox="0 0 48 48" xml:space="preserve">
<g>
	<path fill="#EDC006" d="M44.8534203,18.4233856l-6.2065086-0.8049068l-1.6534576-4.0681734
		c-0.1364555-0.3352385-0.2985687-0.6594553-0.4848824-0.9697666c3.4276695-0.1933603,6.0495911-3.1287823,5.8562317-6.5564494
		s-3.1287842-6.0495911-6.5564499-5.8562312s-6.0495911,3.128782-5.8562317,6.5564489
		c0.0166111,0.2944541,0.0541553,0.5873528,0.1123505,0.8764768c-0.0791206,0.0072608-0.1585846-0.0096464-0.2278957-0.0484886
		c-2.5853176-1.3856921-5.290678-2.534698-8.0830078-3.4329758L21.055336,3.8914239
		c-1.2379341-0.4012592-2.5963116-0.0775688-3.5202541,0.8388488l-5.9543724,5.8670917
		c-1.3446465,1.2991371-1.4547873,3.4172392-0.25214,4.8488359c1.2688532,1.4588766,3.4801149,1.6129217,4.9389935,0.3440685
		c0.0555573-0.0483227,0.1095791-0.0983839,0.1619816-0.1501141l4.3639526-4.315464l2.1092415,1.1055346l-3.432972,5.2658348
		l-0.0290947,0.0484867c-0.5303936,0.9047546-0.8718414,1.9076557-1.0037079,2.9480934l-6.8320103,6.2598476l-6.1386256-2.2353134
		C3.5148892,23.993288,1.331121,24.851347,0.3944455,26.7100449c-0.4916762,1.0170193-0.5252016,2.1957016-0.0921279,3.2390232
		c0.428012,1.0413399,1.2745543,1.8544426,2.3322899,2.24016l8.5194054,3.1032562
		c0.4410973,0.1615257,0.9073286,0.2436066,1.3770695,0.2424431c0.9583044,0.0033264,1.8852491-0.3412628,2.608674-0.9697685
		l7.1374846-5.2318935l3.3166046,4.2184849l-3.9081612,8.5097084c-0.7911758,1.6442146-0.3952808,3.6137886,0.9697666,4.8245926
		c0.4925594,0.4263535,1.0817928,0.7259674,1.7164879,0.8727913c0.1598263,0.0360756,0.3217793,0.0619888,0.4848824,0.0775833
		c0.1437473,0.007679,0.2877998,0.007679,0.4315472,0c1.5624924-0.000412,2.9813709-0.9115982,3.6317787-2.3322906
		l4.9506607-10.8371506c0.5944939-1.2952805,0.4521408-2.8094177-0.3733597-3.9711952l-3.4620705-6.526535l2.0656052-3.6123829
		l0.7564163,1.5467777c0.4221954,1.0790939,1.3522873,1.8783932,2.482605,2.1334896
		c0.1115265,0.0242443,0.2230453,0.0436382,0.3248711,0.0581856l8.3642464,1.0861397
		c0.959877,0.1401386,1.9341965-0.1329517,2.6814041-0.7515697c0.7496529-0.6045647,1.2149391-1.4930038,1.2849426-2.4535103
		C48.089138,20.2967319,46.7202568,18.6616821,44.8534203,18.4233856z M13.6560116,32.6401711l-0.0969772,0.0775833
		c-0.3772764,0.339962-0.8977575,0.4723473-1.3916149,0.3539658l-0.1842556-0.0533371l-8.5194054-3.1081066
		c-0.4159222-0.1523018-0.748548-0.4726067-0.9164298-0.8824883c-0.1732621-0.4121418-0.1591089-0.8791962,0.0387905-1.2800922
		c0.3990176-0.7315979,1.2778783-1.0549526,2.0559063-0.7564182l6.8271613,2.4874535
		c0.4236698,0.1545792,0.8981314,0.061182,1.2316036-0.2424431l5.9689178-5.4500904
		c0.2775402,0.9710827,0.7420235,1.8786316,1.3673706,2.6717091l0.7467213,0.9697666L13.6560116,32.6401711z M45.1734467,22.7436981
		c-0.226944,0.191864-0.5255394,0.2766705-0.8194542,0.2327442l-8.3884888-1.0909882h-0.0969734
		c-0.3546524-0.0793934-0.6448936-0.3331242-0.7709656-0.6739883c-0.0142136-0.0379906-0.0303993-0.0752163-0.0484848-0.1115227
		l-1.7843742-3.6511726c-0.2935104-0.6017151-1.0192337-0.8515644-1.6209507-0.5580502
		c-0.2194729,0.1070576-0.4015007,0.2779064-0.5222321,0.4901657l-3.5202599,6.1628704
		c-0.2001419,0.3638134-0.2001419,0.8047543,0,1.1685696l3.8208809,7.1956711
		c0.0321484,0.0612507,0.0694561,0.119648,0.1115246,0.1745567c0.3347816,0.4545135,0.3925362,1.0562897,0.1503124,1.5661774
		l-4.9894505,10.8516922c-0.2890434,0.6091995-0.9289722,0.9718285-1.6001148,0.9067345l-0.1794071-0.0290909
		c-0.252327-0.0579376-0.4868927-0.1760521-0.6836853-0.3442688c-0.5279083-0.5009308-0.6675282-1.2875214-0.3442669-1.9395332
		l4.2184868-9.2127876c0.1895657-0.4136505,0.1315193-0.8986206-0.1503143-1.2558479l-6.0174046-7.6563168
		c-1.3522606-1.7052746-1.5197487-4.0655289-0.4218483-5.9446735l4.1554527-6.3665209
		c0.3720608-0.5565786,0.2224808-1.3093901-0.3340969-1.6814528c-0.037632-0.0251551-0.0766411-0.0481834-0.116848-0.0689754
		l-4.0730209-2.1334877c-0.4680233-0.2449884-1.0408096-0.1586781-1.4158592,0.2133484l-5.0039988,4.9409637
		c-0.2638311,0.2603903-0.6422415,0.3682461-1.0037088,0.2860813c-0.2227793-0.0502453-0.4234238-0.1709709-0.5721626-0.3442669
		c-0.3679981-0.4686222-0.3108196-1.1420593,0.1309185-1.5419302l5.9543686-5.8767891
		c0.2822876-0.2806458,0.6978226-0.3798504,1.0764427-0.256988l0.6982307,0.2278953
		c2.6519184,0.8555894,5.2209644,1.9494228,7.6757069,3.268116c1.1266003,0.6125193,2.5253887,0.3807192,3.3941841-0.5624647
		c0.4431534-0.4780035,0.6048927-1.152534,0.4266968-1.7795234c-0.1970444-0.7225466-0.1734009-1.4875226,0.0678825-2.1965227
		c0.5862541-1.6671891,2.2369804-2.7169213,3.9954414-2.5407898c2.0759392,0.2313495,3.5712776,2.1017773,3.3399277,4.1777172
		c-0.0158844,0.1425233-0.0398598,0.2840276-0.0718155,0.4238276c-0.4263878,1.8432302-2.1506577,3.0866947-4.0342293,2.9093018
		l-0.4363976-0.0872793c-0.9427109-0.1885309-1.8597679,0.4228544-2.0482979,1.3655672
		c-0.1113663,0.5568781,0.0559158,1.1330719,0.4481812,1.5437346c0.4169159,0.4340191,0.7461853,0.9443903,0.9697685,1.5031385
		l1.9395332,4.7276154c0.1646423,0.4058094,0.5353584,0.6912613,0.9697685,0.7467213l6.9095917,0.8970337
		c0.5957794,0.0621376,1.0480957,0.5647106,1.047348,1.163723c-0.0234222,0.3042946-0.1772232,0.5836143-0.4218407,0.7661133
		L45.1734467,22.7436981z"/>
	<path fill="#EDC006" d="M1.2138988,14.1467123H5.883328c0.6694841,0,1.2122087-0.5427246,1.2122087-1.2122087
		c0-0.6694851-0.5427246-1.2122097-1.2122087-1.2122097H1.2138988c-0.6694846,0-1.212209,0.5427246-1.212209,1.2122097
		C0.0016898,13.6039877,0.5444142,14.1467123,1.2138988,14.1467123z"/>
	<path fill="#EDC006" d="M5.1850953,7.2031789h4.6694283c0.6694851,0,1.2122097-0.5427246,1.2122097-1.2122092
		s-0.5427246-1.2122087-1.2122097-1.2122087H5.1850953c-0.6694846,0-1.2122092,0.5427246-1.2122092,1.2122087
		S4.5156107,7.2031789,5.1850953,7.2031789z"/>
	<path fill="#EDC006" d="M3.9728861,19.873188c0,0.6694832,0.5427246,1.2122097,1.2122092,1.2122097h4.6694283
		c0.6694851,0,1.2122097-0.5427265,1.2122097-1.2122097s-0.5427246-1.2122097-1.2122097-1.2122097H5.1850953
		C4.5156107,18.6609783,3.9728861,19.2037048,3.9728861,19.873188z"/>
</g>
</svg>
