<?xml version="1.0" encoding="utf-8"?>
<!-- Generator: Adobe Illustrator 23.0.2, SVG Export Plug-In . SVG Version: 6.00 Build 0)  -->
<svg version="1.2" baseProfile="tiny" id="Layer_1" xmlns="http://www.w3.org/2000/svg" xmlns:xlink="http://www.w3.org/1999/xlink"
	 x="0px" y="0px" viewBox="0 0 50 50" xml:space="preserve">
<g transform="translate(0,-952.36218)">
	<path d="M29.77,965.36c-2.67,0.9-4.75,1.8-4.46,5.71C27.98,970.47,30.36,968.97,29.77,965.36z M21.29,970.79
		c-2.57,0-6.29,2.29-6.29,6.57c0,6,4,12,6.29,12c1.71,0,3.14-1.14,4.29-1.14s2.29,1.14,4,1.14c2.29,0,4.86-3.43,5.43-6.57
		c-2-1.43-3.43-2.29-3.43-4.86c0-1.71,1.43-3.43,3.14-4.86c-0.86-1.14-2.57-2.29-4.29-2.29s-3.56,1.36-4.86,1.43
		C24.43,972.22,23,970.79,21.29,970.79L21.29,970.79z"/>
</g>
</svg>
