<?xml version="1.0" encoding="utf-8"?>
<!-- Generator: Adobe Illustrator 23.0.2, SVG Export Plug-In . SVG Version: 6.00 Build 0)  -->
<svg version="1.2" baseProfile="tiny" id="Layer_1" xmlns="http://www.w3.org/2000/svg" xmlns:xlink="http://www.w3.org/1999/xlink"
	 x="0px" y="0px" viewBox="0 0 50 50" xml:space="preserve">
<path d="M17.93,33.77c-0.98-0.98-1.71-2.08-2.2-3.31C15.24,29.22,15,27.97,15,26.7c0-1.27,0.24-2.52,0.73-3.75
	c0.49-1.23,1.22-2.34,2.2-3.31l5.81-5.81c0.35-0.35,0.77-0.53,1.26-0.53c0.49,0,0.91,0.18,1.26,0.53l5.81,5.81
	c0.98,0.98,1.71,2.08,2.2,3.31C34.76,24.18,35,25.43,35,26.7c0,1.27-0.24,2.52-0.73,3.75c-0.49,1.23-1.22,2.34-2.2,3.31
	c-0.98,0.98-2.08,1.71-3.31,2.2c-1.23,0.49-2.48,0.73-3.75,0.73c-1.27,0-2.52-0.24-3.75-0.73C20.01,35.48,18.91,34.75,17.93,33.77z"
	/>
</svg>
