<?xml version="1.0" encoding="utf-8"?>
<!-- Generator: Adobe Illustrator 23.0.2, SVG Export Plug-In . SVG Version: 6.00 Build 0)  -->
<svg version="1.2" baseProfile="tiny" id="Layer_1" xmlns="http://www.w3.org/2000/svg" xmlns:xlink="http://www.w3.org/1999/xlink"
	 x="0px" y="0px" viewBox="0 0 50 50" xml:space="preserve">
<path d="M36.1,17.06h-4.98V15.1c0-1.29-1.05-2.35-2.35-2.35h-7.53c-1.29,0-2.35,1.05-2.35,2.35v1.96H13.9
	c-1.47,0-2.67,1.2-2.67,2.67v14.85c0,1.47,1.2,2.67,2.67,2.67H36.1c1.47,0,2.67-1.2,2.67-2.67V19.73
	C38.77,18.26,37.57,17.06,36.1,17.06z M21.23,14.26h7.53c0.46,0,0.83,0.38,0.83,0.83v1.96h-9.2V15.1
	C20.4,14.64,20.77,14.26,21.23,14.26z M26.56,25.59v3.13h-3.12v-3.13H26.56z M32.7,26.4h-4.62v-1.56c0-0.42-0.34-0.76-0.76-0.76
	h-4.64c-0.42,0-0.76,0.34-0.76,0.76v1.56H17.3c-2.11,0-4.1-2.12-4.55-2.63v-4.03c0-0.64,0.52-1.16,1.16-1.16H36.1
	c0.64,0,1.16,0.52,1.16,1.16v4.03C36.8,24.28,34.81,26.4,32.7,26.4z M12.75,25.9c1.1,0.96,2.72,2.01,4.55,2.01h4.62v1.56
	c0,0.42,0.34,0.76,0.76,0.76h4.64c0.42,0,0.76-0.34,0.76-0.76v-1.56h4.62c1.83,0,3.46-1.05,4.56-2.01v8.68
	c0,0.31-0.12,0.6-0.34,0.82c-0.22,0.22-0.51,0.34-0.82,0.34H13.9c-0.64,0-1.16-0.52-1.16-1.16V25.9z"/>
</svg>
