<?xml version="1.0" encoding="utf-8"?>
<!-- Generator: Adobe Illustrator 23.0.2, SVG Export Plug-In . SVG Version: 6.00 Build 0)  -->
<svg version="1.2" baseProfile="tiny" id="Layer_1" xmlns="http://www.w3.org/2000/svg" xmlns:xlink="http://www.w3.org/1999/xlink"
	 x="0px" y="0px" viewBox="0 0 50 50" xml:space="preserve">
<path d="M37.43,29.84c0.05,0.23,0.02,0.45-0.09,0.66c-0.12,0.21-0.29,0.34-0.53,0.39l-12.84,3.42c0,0.04,0,0.06,0,0.08
	c0,1.06-0.38,1.96-1.15,2.68s-1.68,1.06-2.74,1.01c-0.94-0.04-1.74-0.4-2.43-1.08c-0.68-0.68-1.05-1.5-1.11-2.45
	c-0.02-0.74,0.15-1.41,0.51-2.02c0.36-0.61,0.84-1.08,1.46-1.4l-3.99-14.97l-4.26-2.48c-0.22-0.13-0.35-0.3-0.4-0.53
	c-0.05-0.22-0.03-0.44,0.08-0.66c0.13-0.2,0.3-0.33,0.53-0.39c0.22-0.06,0.44-0.03,0.66,0.09l4.88,2.83l4.15,15.67
	c0.02,0,0.04,0,0.05,0c0.02,0,0.04,0,0.05,0c0.7,0,1.34,0.18,1.92,0.54c0.57,0.36,1.02,0.83,1.35,1.4l12.84-3.42
	c0.23-0.05,0.45-0.02,0.66,0.09C37.25,29.43,37.38,29.61,37.43,29.84z M20.28,36.39c0.54,0,1.01-0.19,1.4-0.58
	c0.4-0.39,0.59-0.86,0.59-1.42c0-0.54-0.2-1.01-0.59-1.4s-0.86-0.59-1.4-0.59c-0.56,0-1.03,0.2-1.42,0.59
	c-0.39,0.4-0.58,0.86-0.58,1.4c0,0.56,0.19,1.03,0.58,1.42C19.25,36.2,19.72,36.39,20.28,36.39z M36.07,26.65
	c-0.12,0.21-0.29,0.35-0.53,0.42L23.36,30.3c-0.22,0.05-0.43,0.02-0.63-0.09c-0.21-0.12-0.35-0.29-0.42-0.53l-3.24-12.19
	c-0.05-0.22-0.02-0.43,0.09-0.63c0.12-0.21,0.29-0.34,0.53-0.39l12.16-3.26c0.23-0.05,0.45-0.02,0.66,0.09
	c0.21,0.12,0.34,0.29,0.39,0.53l3.24,12.19C36.21,26.23,36.19,26.44,36.07,26.65z M25.43,16.71l-3.64,0.97
	c-0.23,0.05-0.41,0.18-0.53,0.39c-0.12,0.21-0.15,0.43-0.09,0.66l2.37,8.85c0.05,0.23,0.18,0.41,0.39,0.53
	c0.21,0.12,0.42,0.15,0.63,0.09l8.87-2.37c0.23-0.05,0.41-0.18,0.53-0.39c0.12-0.21,0.15-0.43,0.09-0.66l-2.37-8.85
	c-0.05-0.23-0.18-0.41-0.39-0.53c-0.21-0.12-0.43-0.15-0.66-0.09l-3.56,0.94l0.7,2.59c0.05,0.22,0.02,0.43-0.09,0.63
	s-0.29,0.35-0.53,0.42c-0.23,0.05-0.45,0.02-0.66-0.09c-0.21-0.12-0.34-0.29-0.39-0.53L25.43,16.71z"/>
</svg>
