<?xml version="1.0" encoding="utf-8"?>
<!-- Generator: Adobe Illustrator 23.0.2, SVG Export Plug-In . SVG Version: 6.00 Build 0)  -->
<svg version="1.2" baseProfile="tiny" id="Layer_1" xmlns="http://www.w3.org/2000/svg" xmlns:xlink="http://www.w3.org/1999/xlink"
	 x="0px" y="0px" viewBox="0 0 50 50" xml:space="preserve">
<g>
	<g>
		<path d="M40.76,13.14c-0.17-0.13-0.39-0.17-0.6-0.11l-20.62,5.89h-4.84c-3.17,0-5.74,2.58-5.74,5.74c0,2.91,2.17,5.31,4.97,5.68
			L16,36.53c0.09,0.28,0.35,0.47,0.65,0.47h3.8c0.22,0,0.43-0.11,0.55-0.28c0.13-0.18,0.16-0.41,0.09-0.61l-1.9-5.7h0.37l20.6,5.88
			c0.06,0.02,0.12,0.03,0.19,0.03c0.15,0,0.29-0.05,0.41-0.14c0.17-0.13,0.27-0.33,0.27-0.54l0-21.94
			C41.03,13.47,40.93,13.27,40.76,13.14z M10.33,24.66c0-2.41,1.96-4.38,4.38-4.38h4.25v8.75h-0.7h-3.55
			C12.29,29.03,10.33,27.07,10.33,24.66z M19.51,35.64h-2.37L15.4,30.4h2.37L19.51,35.64z M39.67,34.72l-19.35-5.52v-9.08
			l19.35-5.52L39.67,34.72z"/>
	</g>
</g>
</svg>
