<?xml version="1.0" encoding="utf-8"?>
<!-- Generator: Adobe Illustrator 23.0.2, SVG Export Plug-In . SVG Version: 6.00 Build 0)  -->
<svg version="1.2" baseProfile="tiny" id="Layer_1" xmlns="http://www.w3.org/2000/svg" xmlns:xlink="http://www.w3.org/1999/xlink"
	 x="0px" y="0px" viewBox="0 0 50 50" xml:space="preserve">
<path d="M25.56,14.47c0.86,0,1.67,0.16,2.44,0.49c0.77,0.33,1.43,0.78,2,1.35c0.57,0.57,1.02,1.24,1.35,2
	c0.33,0.77,0.49,1.59,0.49,2.46v1.66c0,0.86-0.16,1.67-0.49,2.44c-0.33,0.77-0.78,1.43-1.35,2c-0.57,0.57-1.24,1.02-2,1.35
	c-0.77,0.34-1.58,0.52-2.44,0.52h-1.78l-7.01,3.21c-0.05,0.02-0.09,0.03-0.14,0.04C16.59,32,16.54,32,16.49,32
	c-0.09,0-0.18-0.02-0.26-0.05c-0.08-0.03-0.15-0.08-0.21-0.14c-0.09-0.09-0.15-0.21-0.18-0.35c-0.02-0.14-0.01-0.27,0.04-0.4
	c0.3-0.61,0.55-1.14,0.77-1.58c0.22-0.45,0.41-0.81,0.56-1.09c-0.63-0.22-1.2-0.53-1.71-0.94c-0.53-0.39-0.98-0.85-1.35-1.37
	c-0.37-0.52-0.65-1.1-0.86-1.72c-0.2-0.61-0.3-1.25-0.3-1.92v-1.66c0-0.87,0.16-1.69,0.49-2.46c0.33-0.77,0.78-1.43,1.35-2
	c0.57-0.57,1.24-1.02,2-1.35c0.77-0.33,1.59-0.49,2.46-0.49H25.56z M18.7,28.55c-0.08,0.09-0.19,0.26-0.33,0.5
	c-0.14,0.24-0.3,0.55-0.47,0.93l5.46-2.51c0.05-0.02,0.09-0.03,0.14-0.05c0.05-0.02,0.09-0.02,0.14-0.02h1.92
	c0.67,0,1.31-0.13,1.92-0.4c0.61-0.25,1.14-0.6,1.59-1.05c0.45-0.45,0.8-0.98,1.05-1.59c0.27-0.59,0.4-1.23,0.4-1.92v-1.66
	c0-0.69-0.13-1.34-0.4-1.95c-0.25-0.59-0.6-1.12-1.05-1.57c-0.45-0.45-0.98-0.81-1.59-1.08s-1.25-0.4-1.92-0.4H19.3
	c-0.69,0-1.34,0.13-1.95,0.4c-0.59,0.27-1.12,0.63-1.57,1.08c-0.45,0.45-0.81,0.98-1.08,1.57c-0.27,0.61-0.4,1.26-0.4,1.95v1.66
	c0,1.2,0.39,2.27,1.17,3.2c0.78,0.93,1.77,1.5,2.95,1.7c0.19,0.03,0.33,0.12,0.43,0.26c0.1,0.14,0.14,0.3,0.13,0.47
	c-0.02,0.11-0.05,0.2-0.11,0.28C18.84,28.42,18.77,28.49,18.7,28.55z M17.71,20.35c0.38,0,0.7,0.14,0.97,0.41
	c0.27,0.27,0.41,0.6,0.41,0.97c0,0.39-0.14,0.72-0.41,1c-0.27,0.27-0.6,0.41-0.97,0.41c-0.39,0-0.72-0.14-1-0.41
	c-0.27-0.27-0.41-0.61-0.41-1c0-0.38,0.14-0.7,0.41-0.97C16.99,20.49,17.32,20.35,17.71,20.35z M31.87,18.19
	c0.75,0.14,1.44,0.4,2.06,0.77c0.62,0.37,1.16,0.84,1.62,1.38c0.45,0.55,0.81,1.16,1.08,1.85c0.25,0.69,0.38,1.41,0.38,2.18v1.64
	c0,0.67-0.1,1.32-0.3,1.95c-0.2,0.63-0.49,1.2-0.86,1.72c-0.37,0.52-0.82,0.98-1.35,1.37c-0.52,0.39-1.09,0.7-1.71,0.91
	c0.16,0.3,0.34,0.67,0.56,1.11c0.22,0.45,0.48,0.97,0.77,1.58c0.05,0.13,0.06,0.25,0.03,0.39c-0.02,0.13-0.08,0.25-0.18,0.36
	c-0.06,0.06-0.13,0.11-0.21,0.14c-0.08,0.03-0.16,0.05-0.26,0.05c-0.05,0-0.09,0-0.14-0.01c-0.05-0.01-0.09-0.02-0.14-0.04
	l-7.01-3.23h-1.78c-0.73,0-1.45-0.13-2.14-0.38c-0.7-0.25-1.32-0.62-1.89-1.1l1.38-0.63c0.39,0.27,0.81,0.47,1.27,0.6
	c0.45,0.13,0.91,0.2,1.38,0.2h1.92c0.05,0,0.09,0,0.14,0.01c0.05,0.01,0.09,0.03,0.14,0.06l5.46,2.48
	c-0.17-0.36-0.33-0.66-0.47-0.91c-0.14-0.25-0.25-0.42-0.33-0.52c-0.08-0.05-0.14-0.11-0.2-0.2c-0.06-0.09-0.09-0.18-0.11-0.27
	c-0.02-0.17,0.03-0.33,0.13-0.47c0.1-0.14,0.25-0.23,0.43-0.26c1.19-0.22,2.17-0.79,2.95-1.71c0.78-0.92,1.17-1.99,1.17-3.21v-1.64
	c0-1.08-0.32-2.05-0.95-2.92c-0.63-0.87-1.45-1.46-2.45-1.79c-0.05-0.27-0.11-0.52-0.18-0.76C32.04,18.67,31.96,18.43,31.87,18.19z
	 M23.42,20.76c0.27,0.27,0.41,0.6,0.41,0.97c0,0.39-0.14,0.72-0.41,1c-0.27,0.27-0.61,0.41-1,0.41c-0.38,0-0.7-0.14-0.97-0.41
	c-0.27-0.27-0.41-0.61-0.41-1c0-0.38,0.14-0.7,0.41-0.97c0.27-0.27,0.6-0.41,0.97-0.41C22.81,20.35,23.14,20.49,23.42,20.76z
	 M28.13,20.76c0.27,0.27,0.41,0.6,0.41,0.97c0,0.39-0.14,0.72-0.41,1c-0.27,0.27-0.6,0.41-0.97,0.41c-0.39,0-0.72-0.14-1-0.41
	c-0.27-0.27-0.41-0.61-0.41-1c0-0.38,0.14-0.7,0.41-0.97c0.27-0.27,0.61-0.41,1-0.41C27.53,20.35,27.86,20.49,28.13,20.76z"/>
</svg>
