<?xml version="1.0" encoding="utf-8"?>
<!-- Generator: Adobe Illustrator 23.0.2, SVG Export Plug-In . SVG Version: 6.00 Build 0)  -->
<svg version="1.2" baseProfile="tiny" id="Layer_1" xmlns="http://www.w3.org/2000/svg" xmlns:xlink="http://www.w3.org/1999/xlink"
	 x="0px" y="0px" viewBox="0 0 50 50" xml:space="preserve">
<g>
	<path d="M14.22,29.41c0.42,0,0.76-0.34,0.76-0.76c0-0.42-0.34-0.76-0.76-0.76c-0.42,0-0.76,0.34-0.76,0.76
		C13.46,29.07,13.8,29.41,14.22,29.41z"/>
	<path d="M33.21,22.86c0.11,0.06,0.24,0.09,0.37,0.09c0.28,0,0.53-0.15,0.67-0.39c0.2-0.37,0.07-0.83-0.3-1.03
		c-0.36-0.19-0.84-0.05-1.03,0.3c-0.1,0.18-0.12,0.38-0.07,0.58C32.9,22.6,33.03,22.76,33.21,22.86z"/>
	<path d="M36.34,23.85L36.34,23.85c-0.13-0.36-0.32-0.7-0.56-1c-0.25-0.32-0.75-0.37-1.07-0.12c-0.18,0.14-0.28,0.36-0.29,0.59
		c0,0.17,0.06,0.34,0.17,0.47c0.27,0.34,0.42,0.76,0.42,1.2c0,0.72-0.39,1.36-1.06,1.73l-2.68,1.48l-4.01-3.7l3.19-3.18l1.11,0.61
		c0.36,0.2,0.84,0.06,1.03-0.3c0.2-0.37,0.07-0.83-0.3-1.03l-8.03-4.43c-0.34-0.19-0.79-0.09-1.03,0.3c-0.06,0.11-0.1,0.24-0.1,0.37
		c0,0.28,0.15,0.53,0.39,0.66l5.54,3.05l-2.92,2.92l-9.84-9.07c0.59-0.24,1.26-0.19,1.85,0.13l1.98,1.09
		c0.36,0.2,0.84,0.05,1.03-0.3c0.2-0.37,0.07-0.83-0.3-1.03l-1.98-1.09c-1.15-0.64-2.57-0.62-3.7,0.06
		c-0.18,0.11-0.38,0.25-0.58,0.42l-0.06,0.06c0,0,0,0,0,0l-0.04,0.04c0,0-0.01,0.01-0.01,0.01l-0.02,0.02
		c-0.31,0.31-0.55,0.67-0.73,1.07c-0.19,0.43-0.28,0.9-0.28,1.38v10.38c0,0.42,0.34,0.76,0.76,0.76c0.42,0,0.76-0.34,0.76-0.76
		l0-10.38c0-0.3,0.06-0.59,0.19-0.84l9.9,9.12l-9.93,9.92c-0.1-0.24-0.15-0.49-0.15-0.77v-3.18c0-0.42-0.34-0.76-0.76-0.76
		c-0.42,0-0.76,0.34-0.76,0.76v3.18c0,0.47,0.09,0.93,0.27,1.36c0.18,0.43,0.44,0.8,0.76,1.1l0.05,0.06
		c0.2,0.19,0.42,0.36,0.65,0.49c0.55,0.34,1.21,0.53,1.89,0.53c0.65,0,1.28-0.16,1.81-0.47l12.59-6.93h0.19v-0.1l3.03-1.68
		c0.56-0.31,1.03-0.75,1.35-1.28c0.33-0.54,0.5-1.15,0.5-1.78C36.54,24.61,36.47,24.22,36.34,23.85z M29.87,28.99l-11.72,6.45
		l-0.02,0.01c-0.54,0.32-1.29,0.37-1.91,0.09l9.96-9.96L29.87,28.99z"/>
	<path d="M21.78,16.55L21.78,16.55c0.11,0.06,0.24,0.09,0.37,0.09c0.28,0,0.53-0.15,0.67-0.39c0.1-0.18,0.12-0.38,0.06-0.58
		c-0.06-0.2-0.19-0.36-0.36-0.45c-0.35-0.2-0.84-0.06-1.03,0.3c-0.1,0.18-0.12,0.38-0.07,0.58C21.48,16.29,21.6,16.46,21.78,16.55z"
		/>
</g>
</svg>
