<?xml version="1.0" encoding="utf-8"?>
<!-- Generator: Adobe Illustrator 23.0.2, SVG Export Plug-In . SVG Version: 6.00 Build 0)  -->
<svg version="1.2" baseProfile="tiny" id="Layer_1" xmlns="http://www.w3.org/2000/svg" xmlns:xlink="http://www.w3.org/1999/xlink"
	 x="0px" y="0px" viewBox="0 0 50 50" xml:space="preserve">
<path d="M28.8,29.72l2.72,2.75c-0.63,0.58-1.33,1.06-2.09,1.46c-0.76,0.4-1.58,0.69-2.44,0.89v1.94l-4.29,2.05v-3.96
	c-1.15-0.25-2.21-0.67-3.18-1.27c-0.97-0.61-1.81-1.35-2.51-2.21c-0.7-0.86-1.26-1.83-1.67-2.91c-0.4-1.1-0.59-2.25-0.59-3.45
	s0.2-2.35,0.59-3.45c0.41-1.08,0.97-2.05,1.67-2.91s1.54-1.6,2.51-2.21c0.97-0.59,2.03-1.02,3.18-1.27v-1.91l4.29-2.05v3.99
	c0.86,0.2,1.68,0.49,2.44,0.89c0.76,0.4,1.46,0.88,2.09,1.46l-2.72,2.75c-0.54-0.47-1.15-0.83-1.83-1.08
	c-0.68-0.25-1.4-0.38-2.16-0.38c-0.86,0-1.67,0.16-2.43,0.49c-0.74,0.32-1.39,0.76-1.96,1.32c-0.57,0.56-1.01,1.21-1.33,1.97
	c-0.32,0.76-0.49,1.56-0.49,2.4c0,0.86,0.16,1.66,0.49,2.4c0.32,0.75,0.77,1.41,1.33,1.97c0.57,0.56,1.22,1,1.96,1.32
	c0.76,0.32,1.56,0.49,2.43,0.49c0.75,0,1.47-0.13,2.16-0.38C27.65,30.55,28.26,30.19,28.8,29.72z"/>
</svg>
