<?xml version="1.0" encoding="utf-8"?>
<!-- Generator: Adobe Illustrator 23.0.2, SVG Export Plug-In . SVG Version: 6.00 Build 0)  -->
<svg version="1.2" baseProfile="tiny" id="Layer_1" xmlns="http://www.w3.org/2000/svg" xmlns:xlink="http://www.w3.org/1999/xlink"
	 x="0px" y="0px" viewBox="0 0 117.09 27.61" xml:space="preserve">
<path d="M13.02,21.17c0,0.88-0.17,1.72-0.51,2.51c-0.34,0.77-0.8,1.45-1.38,2.04s-1.26,1.05-2.05,1.39
	c-0.79,0.34-1.63,0.51-2.51,0.51c-0.92,0-1.77-0.17-2.56-0.51c-0.79-0.34-1.48-0.81-2.08-1.4c-0.59-0.59-1.06-1.29-1.4-2.1
	C0.18,22.81,0,21.96,0,21.06c0-0.9,0.17-1.73,0.51-2.51c0.34-0.79,0.8-1.48,1.39-2.06c0.58-0.58,1.26-1.05,2.04-1.39
	c0.79-0.34,1.64-0.51,2.54-0.51h5.39c0.32,0,0.6,0.12,0.82,0.35c0.22,0.23,0.34,0.5,0.34,0.81V21.17z M18.8,6.5
	c0,0.9-0.17,1.74-0.51,2.53c-0.34,0.79-0.8,1.48-1.39,2.06c-0.58,0.58-1.27,1.05-2.06,1.39C14.04,12.83,13.2,13,12.3,13H6.96
	c-0.32,0-0.6-0.11-0.82-0.34s-0.34-0.5-0.34-0.82V6.5c0-0.9,0.17-1.74,0.51-2.54C6.65,3.17,7.11,2.49,7.7,1.9
	c0.58-0.58,1.27-1.05,2.06-1.39C10.55,0.17,11.4,0,12.3,0c0.9,0,1.74,0.17,2.54,0.51c0.79,0.34,1.48,0.8,2.06,1.39
	c0.58,0.58,1.05,1.27,1.39,2.06C18.63,4.76,18.8,5.6,18.8,6.5z M30.53,6.23h3.51v15.16h-3.51V6.23z M52.91,21.38h-2.86l-7.55-9.2
	v9.2h-3.45V6.23h2.89l7.52,9.2v-9.2h3.45V21.38z M71.35,13.56v6.15c-0.4,0.31-0.83,0.58-1.31,0.82s-0.98,0.44-1.52,0.61
	c-0.54,0.16-1.08,0.28-1.63,0.36c-0.55,0.08-1.09,0.12-1.63,0.12c-0.79,0-1.54-0.08-2.25-0.24s-1.38-0.41-2.01-0.75
	c-0.61-0.34-1.16-0.74-1.66-1.2c-0.5-0.46-0.92-0.98-1.28-1.58c-0.36-0.61-0.63-1.25-0.81-1.91s-0.27-1.38-0.27-2.13
	c0-0.76,0.09-1.47,0.27-2.13s0.45-1.3,0.81-1.91c0.36-0.59,0.79-1.12,1.28-1.58c0.49-0.46,1.06-0.86,1.68-1.2
	c0.63-0.34,1.3-0.59,2.02-0.75c0.72-0.16,1.47-0.24,2.26-0.24c0.67,0,1.3,0.05,1.9,0.16c0.6,0.11,1.17,0.28,1.71,0.51
	c0.54,0.22,1.03,0.49,1.48,0.81s0.86,0.7,1.24,1.13l-2.24,2.08c-0.56-0.58-1.16-1.01-1.81-1.29c-0.65-0.29-1.36-0.43-2.13-0.43
	c-0.47,0-0.92,0.05-1.35,0.16s-0.84,0.26-1.21,0.46c-0.38,0.2-0.71,0.44-1,0.73c-0.29,0.29-0.54,0.61-0.75,0.97
	c-0.22,0.38-0.37,0.78-0.47,1.2c-0.1,0.42-0.15,0.87-0.15,1.33c0,0.47,0.05,0.91,0.15,1.33s0.26,0.81,0.47,1.17
	c0.21,0.36,0.47,0.68,0.75,0.97c0.29,0.29,0.62,0.54,1,0.76c0.36,0.2,0.75,0.35,1.17,0.46c0.42,0.11,0.88,0.16,1.36,0.16
	c0.5,0,0.98-0.05,1.43-0.16c0.45-0.11,0.88-0.27,1.29-0.49v-4.45H71.35z M82.76,17.15h-3.21v4.23h-3.5V6.23h6.55
	c0.67,0,1.29,0.06,1.87,0.18c0.58,0.12,1.12,0.28,1.6,0.5c0.5,0.23,0.94,0.51,1.32,0.82s0.7,0.68,0.97,1.09s0.47,0.86,0.59,1.35
	c0.13,0.49,0.19,1.01,0.19,1.56c0,0.56-0.07,1.08-0.2,1.56c-0.13,0.49-0.34,0.94-0.61,1.35c-0.27,0.41-0.59,0.77-0.97,1.08
	c-0.38,0.31-0.82,0.57-1.32,0.78l3.4,4.88h-3.78L82.76,17.15z M84.78,9.76c-0.27-0.22-0.6-0.38-1-0.5c-0.4-0.12-0.86-0.18-1.4-0.18
	h-2.83v5.29h2.83c0.54,0,1.01-0.06,1.4-0.18c0.39-0.12,0.73-0.29,1-0.53c0.29-0.23,0.5-0.51,0.63-0.84c0.13-0.32,0.2-0.69,0.2-1.11
	c0-0.43-0.07-0.81-0.2-1.13C85.28,10.27,85.07,10,84.78,9.76z M96.87,6.23v15.16h-3.51V6.23H96.87z M108.76,6.23
	c0.83,0,1.6,0.08,2.32,0.24c0.72,0.16,1.39,0.4,2.02,0.7c0.63,0.32,1.19,0.71,1.69,1.15s0.91,0.94,1.25,1.5
	c0.36,0.58,0.63,1.2,0.8,1.86s0.26,1.38,0.26,2.13c0,0.75-0.08,1.47-0.26,2.13s-0.44,1.29-0.8,1.86c-0.34,0.56-0.76,1.06-1.25,1.5
	s-1.06,0.82-1.69,1.15c-0.63,0.31-1.3,0.54-2.02,0.7c-0.72,0.16-1.49,0.24-2.32,0.24h-6.88V6.23H108.76z M110.63,18.19
	c0.6-0.21,1.13-0.53,1.58-0.96c0.45-0.41,0.79-0.91,1.01-1.48c0.22-0.58,0.34-1.22,0.34-1.94c0-0.72-0.11-1.37-0.34-1.94
	c-0.23-0.58-0.56-1.07-1.01-1.48c-0.45-0.43-0.98-0.75-1.58-0.96c-0.6-0.21-1.29-0.31-2.06-0.31h-3.18v9.38h3.18
	C109.34,18.5,110.03,18.4,110.63,18.19z"/>
</svg>
