<?xml version="1.0" encoding="utf-8"?>
<!-- Generator: Adobe Illustrator 23.0.2, SVG Export Plug-In . SVG Version: 6.00 Build 0)  -->
<svg version="1.2" baseProfile="tiny" id="Layer_1" xmlns="http://www.w3.org/2000/svg" xmlns:xlink="http://www.w3.org/1999/xlink"
	 x="0px" y="0px" viewBox="0 0 50 50" xml:space="preserve">
<g>
	<path d="M28.15,31.4c0,0.77-0.15,1.49-0.44,2.18c-0.3,0.67-0.7,1.26-1.2,1.77c-0.5,0.51-1.09,0.91-1.78,1.21
		c-0.69,0.3-1.41,0.45-2.18,0.45c-0.8,0-1.54-0.15-2.23-0.45c-0.69-0.3-1.29-0.7-1.8-1.22c-0.52-0.52-0.92-1.13-1.22-1.83
		c-0.31-0.69-0.47-1.42-0.47-2.2c0-0.78,0.15-1.51,0.44-2.18c0.3-0.69,0.7-1.29,1.21-1.79c0.51-0.51,1.1-0.91,1.77-1.21
		c0.69-0.3,1.42-0.45,2.2-0.45h4.69c0.28,0,0.52,0.1,0.71,0.3c0.2,0.2,0.29,0.44,0.29,0.7V31.4z"/>
	<path d="M33.17,18.65c0,0.78-0.15,1.52-0.45,2.2c-0.3,0.69-0.7,1.29-1.21,1.79c-0.51,0.51-1.11,0.91-1.79,1.21
		c-0.69,0.3-1.42,0.45-2.2,0.45h-4.64c-0.28,0-0.52-0.1-0.71-0.29s-0.29-0.43-0.29-0.72v-4.64c0-0.78,0.15-1.52,0.44-2.2
		c0.3-0.69,0.7-1.29,1.21-1.79c0.51-0.51,1.11-0.91,1.79-1.21C26,13.15,26.74,13,27.52,13c0.78,0,1.52,0.15,2.2,0.45
		c0.69,0.3,1.29,0.7,1.79,1.21c0.51,0.51,0.91,1.11,1.21,1.79C33.02,17.13,33.17,17.87,33.17,18.65z"/>
</g>
</svg>
