<?xml version="1.0" encoding="utf-8"?>
<!-- Generator: Adobe Illustrator 23.0.2, SVG Export Plug-In . SVG Version: 6.00 Build 0)  -->
<svg version="1.2" baseProfile="tiny" id="Layer_1" xmlns="http://www.w3.org/2000/svg" xmlns:xlink="http://www.w3.org/1999/xlink"
	 x="0px" y="0px" viewBox="0 0 50 50" xml:space="preserve">
<path d="M25,37L25,37c-0.26,0-0.51-0.12-0.67-0.32c-0.29-0.36-7.18-8.95-7.18-15.02c0-4.77,3.52-8.66,7.85-8.66s7.85,3.89,7.85,8.67
	c0,6.06-6.88,14.65-7.18,15.02C25.51,36.89,25.26,37,25,37z M25,14.72c-3.38,0-6.12,3.11-6.12,6.94c0,4.42,4.41,10.76,6.12,13.06
	c1.71-2.3,6.12-8.64,6.12-13.05C31.12,17.84,28.38,14.72,25,14.72z M25,24.3c-2,0-3.63-1.62-3.63-3.63S23,17.05,25,17.05
	s3.63,1.62,3.63,3.63c-0.01,1.99-1.63,3.61-3.63,3.61V24.3z M25,18.76c-1.05,0-1.9,0.85-1.9,1.9s0.85,1.9,1.9,1.9s1.9-0.85,1.9-1.9
	C26.9,19.61,26.05,18.76,25,18.76z"/>
</svg>
