<?xml version="1.0" encoding="utf-8"?>
<!-- Generator: Adobe Illustrator 23.0.2, SVG Export Plug-In . SVG Version: 6.00 Build 0)  -->
<svg version="1.2" baseProfile="tiny" id="Layer_1" xmlns="http://www.w3.org/2000/svg" xmlns:xlink="http://www.w3.org/1999/xlink"
	 x="0px" y="0px" viewBox="0 0 50 50" xml:space="preserve">
<path d="M34.71,16.18H15.29c-1.4,0-2.54,1.14-2.54,2.54v12.57c0,1.4,1.14,2.54,2.54,2.54h19.43c1.4,0,2.54-1.14,2.54-2.54V18.71
	C37.25,17.32,36.11,16.18,34.71,16.18z M14.4,19.13l8.85,7.7c1.01,0.88,2.48,0.88,3.49,0l8.87-7.7v12.16c0,0.51-0.38,0.89-0.89,0.89
	H15.29c-0.51,0-0.89-0.38-0.89-0.89L14.4,19.13z M25.66,25.59c-0.42,0.37-0.91,0.37-1.33,0l-8.92-7.77h19.19L25.66,25.59z"/>
</svg>
