<?xml version="1.0" encoding="utf-8"?>
<!-- Generator: Adobe Illustrator 23.0.2, SVG Export Plug-In . SVG Version: 6.00 Build 0)  -->
<svg version="1.2" baseProfile="tiny" id="Layer_1" xmlns="http://www.w3.org/2000/svg" xmlns:xlink="http://www.w3.org/1999/xlink"
	 x="0px" y="0px" viewBox="0 0 50 50" xml:space="preserve">
<g>
	<path d="M31.02,12.94L31.02,12.94c-1.04-0.09-2.12,0.15-3.03,0.68c-0.91-0.52-1.94-0.82-3.01-0.87c-1.04,0.05-2.07,0.35-2.98,0.87
		c-0.91-0.53-1.97-0.77-3.03-0.68c-1.26,0.12-2.24,1.21-2.23,2.48v19.17c-0.02,1.27,0.96,2.36,2.23,2.48
		c1.05,0.09,2.12-0.16,3.02-0.68c0.91,0.52,1.94,0.82,3.01,0.87c1.05-0.05,2.08-0.35,2.99-0.87c0.91,0.53,1.98,0.78,3.03,0.68
		c1.27-0.12,2.24-1.21,2.23-2.48V15.42C33.27,14.15,32.29,13.06,31.02,12.94z M31.75,34.59c0.01,0.5-0.36,0.92-0.85,0.98
		c-0.88,0.07-1.76-0.18-2.49-0.69c-0.25-0.16-0.57-0.17-0.82,0c-0.78,0.5-1.68,0.81-2.57,0.88c-0.92-0.07-1.83-0.37-2.61-0.87
		c-0.12-0.08-0.27-0.12-0.41-0.12c-0.15,0-0.29,0.04-0.42,0.13c-0.72,0.51-1.6,0.77-2.47,0.69c-0.5-0.06-0.87-0.48-0.86-0.99
		l0-19.17c0-0.5,0.37-0.92,0.85-0.98c0.89-0.07,1.76,0.18,2.49,0.69c0.25,0.17,0.57,0.17,0.82,0c0.78-0.5,1.68-0.81,2.57-0.88
		c0.93,0.07,1.83,0.37,2.61,0.87c0.25,0.17,0.58,0.17,0.83-0.01c0.72-0.51,1.61-0.75,2.47-0.69c0.5,0.06,0.87,0.48,0.86,0.99
		L31.75,34.59L31.75,34.59z"/>
	<path d="M24.25,27.5v-0.75h0.25c1.52,0,2.75-1.23,2.75-2.75c0-1.52-1.23-2.75-2.75-2.75h-0.25v-2.5h2.25
		c0.41,0,0.75-0.34,0.75-0.75c0-0.41-0.34-0.75-0.75-0.75h-2.25V16.5c0-0.41-0.34-0.75-0.75-0.75c-0.41,0-0.75,0.34-0.75,0.75v0.75
		H22.5c-1.52,0-2.75,1.23-2.75,2.75c0,1.52,1.23,2.75,2.75,2.75h0.25v2.5H20.5c-0.41,0-0.75,0.34-0.75,0.75
		c0,0.41,0.34,0.75,0.75,0.75h2.25v0.75c0,0.41,0.34,0.75,0.75,0.75C23.91,28.25,24.25,27.91,24.25,27.5z M24.5,25.25h-0.25v-2.5
		h0.25c0.69,0,1.25,0.56,1.25,1.25C25.75,24.69,25.19,25.25,24.5,25.25z M22.75,18.75v2.5H22.5c-0.69,0-1.25-0.56-1.25-1.25
		c0-0.69,0.56-1.25,1.25-1.25H22.75z"/>
	<path d="M28.23,29.33c-0.08-0.33-0.38-0.58-0.73-0.58c-0.34,0-0.64,0.23-0.72,0.57c-1.74,0.34-3.02,1.89-3.03,3.68
		c0,0.41,0.34,0.75,0.75,0.75h6c0.41,0,0.75-0.34,0.75-0.75C31.25,31.22,29.96,29.67,28.23,29.33z M29.62,32.25h-4.24
		c0.16-0.46,0.47-0.85,0.88-1.13c0.5-0.33,1.1-0.45,1.69-0.33C28.73,30.95,29.36,31.51,29.62,32.25z"/>
</g>
</svg>
