<?xml version="1.0" encoding="utf-8"?>
<!-- Generator: Adobe Illustrator 23.0.2, SVG Export Plug-In . SVG Version: 6.00 Build 0)  -->
<svg version="1.2" baseProfile="tiny" id="Layer_1" xmlns="http://www.w3.org/2000/svg" xmlns:xlink="http://www.w3.org/1999/xlink"
	 x="0px" y="0px" viewBox="0 0 50 50" xml:space="preserve">
<g>
	<path d="M46,24.84C46,18.27,40.67,13,34.16,13c-2.15,0-4.14,0.59-5.92,1.56c-0.27-0.54-0.7-0.97-1.24-1.24
		c-0.7-0.32-1.45-0.38-2.21-0.16l-18.83,6.4c-0.7,0.27-1.29,0.75-1.67,1.45c-0.32,0.7-0.38,1.45-0.16,2.21l3.98,11.78
		c0.27,0.7,0.75,1.29,1.45,1.67C9.94,36.89,10.37,37,10.86,37c0.32,0,0.59-0.05,0.91-0.16l13.18-4.47c2.15,2.69,5.49,4.36,9.2,4.36
		C40.72,36.68,46,31.35,46,24.84z M5.37,21.56c0.22-0.38,0.54-0.7,0.97-0.86l18.89-6.4c0.16-0.05,0.38-0.11,0.54-0.11
		c0.27,0,0.48,0.05,0.75,0.16c0.38,0.16,0.65,0.48,0.81,0.91L5.26,22.74C5.15,22.36,5.15,21.93,5.37,21.56z M11.4,35.65
		c-0.43,0.16-0.86,0.11-1.29-0.11c-0.38-0.22-0.7-0.54-0.86-0.97l-2.64-7.8l22.06-7.48l2.64,7.8c0.16,0.43,0.11,0.86-0.11,1.29
		c-0.22,0.38-0.54,0.7-0.97,0.86L11.4,35.65z M26.19,31.89l4.47-1.51c0.75-0.27,1.35-0.81,1.67-1.45c0,0,0.05,0,0.05-0.05
		c0.97-0.97,2.58-0.97,3.55,0.05c0.27,0.27,0.65,0.27,0.86,0c0.11-0.11,0.22-0.27,0.22-0.43s-0.05-0.32-0.16-0.43
		c-1.13-1.18-2.85-1.45-4.25-0.81c0-0.16-0.05-0.32-0.11-0.48l-0.48-1.4c0.7-0.27,1.4-0.43,2.15-0.43c1.51,0,2.91,0.65,3.98,1.72
		c0.27,0.27,0.65,0.27,0.86,0c0.11-0.11,0.22-0.27,0.22-0.43c0-0.16-0.05-0.32-0.16-0.43c-1.29-1.35-3.07-2.04-4.9-2.1
		c-0.86,0-1.72,0.16-2.53,0.48l-0.59-1.83c1.02-0.38,2.1-0.59,3.17-0.59c2.37,0,4.57,0.97,6.24,2.64c0.27,0.27,0.65,0.27,0.86,0
		c0.11-0.11,0.22-0.27,0.22-0.43c0-0.16-0.05-0.32-0.16-0.43c-1.88-1.88-4.41-3.01-7.1-3.01c-1.24,0-2.48,0.22-3.61,0.65l-1.88-5.54
		c1.61-0.97,3.44-1.51,5.49-1.51c5.87,0,10.65,4.79,10.65,10.65s-4.9,10.71-10.76,10.71C30.98,35.49,28.13,34.09,26.19,31.89z"/>
</g>
</svg>
