<?xml version="1.0" encoding="utf-8"?>
<!-- Generator: Adobe Illustrator 23.0.2, SVG Export Plug-In . SVG Version: 6.00 Build 0)  -->
<svg version="1.2" baseProfile="tiny" id="Layer_1" xmlns="http://www.w3.org/2000/svg" xmlns:xlink="http://www.w3.org/1999/xlink"
	 x="0px" y="0px" viewBox="0 0 50 50" xml:space="preserve">
<g>
	<g>
		<path d="M31.26,28.13c-0.45-0.45-1.06-0.7-1.71-0.7c-0.67,0-1.31,0.27-1.79,0.75l-1.29,1.29c-0.64-0.16-2.1-0.67-3.68-2.25
			c-1.58-1.58-2.09-3.04-2.25-3.68l1.29-1.29c0.98-0.98,1-2.55,0.04-3.5l-3.17-3.17c-0.45-0.45-1.06-0.7-1.71-0.7
			c-0.67,0-1.31,0.26-1.79,0.74c-0.02,0.02-0.03,0.03-0.04,0.05c-1.28,1.49-1.97,2.79-2.13,3.97c0,0.01,0,0.01,0,0.02
			c-0.03,0.25-0.12,1.6,0.53,3.66c0.87,2.71,2.61,5.39,5.18,7.96c2.25,2.25,4.6,3.88,6.99,4.83c1.97,0.79,3.45,0.9,4.16,0.9
			c0.25,0,0.41-0.01,0.47-0.02c0.01,0,0.01,0,0.02,0c1.18-0.15,2.48-0.85,3.97-2.13c0.02-0.01,0.03-0.03,0.05-0.04
			c0.98-0.98,0.99-2.55,0.04-3.51L31.26,28.13z M16.98,16.53c0.21,0,0.4,0.08,0.54,0.22l3.17,3.17c0.31,0.31,0.29,0.83-0.04,1.15
			l-1.01,1.01l-4.14-4.14c0.24-0.37,0.54-0.76,0.89-1.17C16.55,16.61,16.76,16.53,16.98,16.53z M30.17,35.33
			c-0.03,0-0.12,0.01-0.28,0.01c-1.11,0-5.11-0.38-9.98-5.25c-2.97-2.97-4.23-5.6-4.77-7.29c-0.56-1.75-0.48-2.86-0.47-2.97
			c0.01-0.1,0.03-0.2,0.06-0.31l4.13,4.13c0.15,0.76,0.7,2.69,2.75,4.74c2.05,2.05,3.99,2.61,4.74,2.75l4.13,4.13
			C30.37,35.29,30.27,35.31,30.17,35.33z M33.23,33.61c-0.41,0.35-0.8,0.64-1.17,0.89l-4.14-4.14l1.01-1.01
			c0.17-0.17,0.39-0.26,0.62-0.26c0.21,0,0.4,0.08,0.54,0.22l3.17,3.17C33.55,32.78,33.54,33.28,33.23,33.61z"/>
		<path d="M36.11,21.58c-0.69-1.72-1.72-3.28-3.07-4.63c-1.35-1.35-2.91-2.38-4.63-3.07c-1.71-0.68-3.53-0.98-5.27-0.87
			c-0.46,0.03-0.81,0.43-0.78,0.88c0.03,0.46,0.43,0.81,0.88,0.78c1.49-0.1,3.07,0.16,4.55,0.75c1.51,0.6,2.88,1.51,4.07,2.7
			c1.19,1.19,2.1,2.56,2.7,4.07c0.59,1.48,0.85,3.05,0.75,4.55c-0.03,0.46,0.32,0.85,0.78,0.88c0.02,0,0.04,0,0.05,0
			c0.43,0,0.8-0.34,0.83-0.78C37.09,25.11,36.79,23.29,36.11,21.58z"/>
		<path d="M32.78,27.41c0.02,0,0.04,0,0.05,0c0.43,0,0.8-0.34,0.83-0.78c0.17-2.56-0.94-5.3-2.97-7.33
			c-2.02-2.02-4.76-3.13-7.33-2.97c-0.46,0.03-0.81,0.43-0.78,0.88c0.03,0.46,0.43,0.81,0.88,0.78c2.09-0.14,4.35,0.79,6.05,2.48
			c1.69,1.69,2.62,3.95,2.48,6.05C31.97,26.99,32.32,27.38,32.78,27.41z"/>
	</g>
</g>
</svg>
