<?xml version="1.0" encoding="utf-8"?>
<!-- Generator: Adobe Illustrator 23.0.2, SVG Export Plug-In . SVG Version: 6.00 Build 0)  -->
<svg version="1.2" baseProfile="tiny" id="Layer_1" xmlns="http://www.w3.org/2000/svg" xmlns:xlink="http://www.w3.org/1999/xlink"
	 x="0px" y="0px" viewBox="0 0 50 50" xml:space="preserve">
<rect x="1" y="1" fill="none" width="48" height="48"/>
<path d="M13.61,20.07c-0.17,0-0.32-0.06-0.43-0.18C13.06,19.78,13,19.63,13,19.46c0-0.17,0.06-0.32,0.18-0.43
	c0.12-0.12,0.26-0.18,0.43-0.18h2.34c0.16,0,0.29,0.06,0.41,0.18c0.12,0.12,0.18,0.26,0.18,0.43c0,0.17-0.06,0.32-0.18,0.43
	c-0.12,0.12-0.25,0.18-0.41,0.18H13.61z M35.43,22.2c0.47,0.06,0.85,0.27,1.15,0.63c0.3,0.36,0.44,0.77,0.42,1.24
	c-0.02,0.23-0.08,0.46-0.2,0.68c-0.12,0.22-0.27,0.4-0.46,0.54c-0.17,0.16-0.38,0.27-0.61,0.34c-0.23,0.07-0.48,0.08-0.73,0.03
	l-4.17-0.54c-0.03,0-0.06,0-0.08-0.01c-0.02-0.01-0.05-0.01-0.08-0.01c-0.28-0.06-0.53-0.19-0.75-0.38
	c-0.22-0.19-0.38-0.41-0.49-0.68l-0.37-0.77l-1.03,1.8l1.73,3.26c0.2,0.28,0.32,0.6,0.35,0.96c0.03,0.36-0.02,0.7-0.16,1.03
	l-2.48,5.41c-0.16,0.34-0.4,0.62-0.74,0.84c-0.34,0.22-0.7,0.33-1.09,0.33c-0.03,0-0.06,0-0.09,0c-0.03,0-0.07,0-0.12,0
	c-0.03-0.02-0.07-0.03-0.12-0.04c-0.05-0.01-0.09-0.01-0.12-0.01c-0.16-0.03-0.31-0.09-0.46-0.16c-0.15-0.08-0.29-0.17-0.41-0.28
	c-0.34-0.3-0.56-0.67-0.65-1.11c-0.09-0.45-0.03-0.88,0.18-1.3l1.95-4.24l-1.66-2.11l-3.56,2.6c-0.19,0.16-0.39,0.28-0.61,0.36
	c-0.22,0.09-0.45,0.13-0.7,0.13c-0.11,0-0.22-0.01-0.34-0.04c-0.12-0.02-0.23-0.05-0.34-0.08l-4.27-1.55
	c-0.27-0.09-0.5-0.24-0.7-0.43c-0.2-0.2-0.36-0.43-0.47-0.69c-0.09-0.27-0.14-0.54-0.13-0.82c0.01-0.28,0.07-0.55,0.18-0.8
	c0.23-0.47,0.59-0.8,1.08-0.98c0.48-0.19,0.98-0.2,1.48-0.02l3.07,1.12l3.4-3.14c0.03-0.25,0.09-0.5,0.18-0.75
	c0.09-0.25,0.2-0.48,0.34-0.7v-0.02l1.73-2.65l-1.05-0.54l-2.2,2.16c-0.03,0.03-0.06,0.06-0.07,0.07c-0.36,0.31-0.78,0.45-1.27,0.42
	c-0.48-0.03-0.88-0.23-1.19-0.59c-0.31-0.36-0.45-0.77-0.42-1.24c0.03-0.47,0.21-0.87,0.54-1.19l2.98-2.93
	c0.23-0.23,0.51-0.39,0.82-0.46c0.31-0.07,0.62-0.06,0.94,0.04l0.35,0.12c0.7,0.22,1.39,0.47,2.06,0.76
	c0.67,0.29,1.34,0.61,1.99,0.95c0.02,0.02,0.03,0.02,0.05,0.02c0.02,0,0.03,0,0.05,0c-0.02-0.06-0.03-0.13-0.04-0.21
	c-0.01-0.08-0.01-0.16-0.01-0.23c-0.05-0.84,0.21-1.59,0.79-2.23c0.57-0.64,1.29-0.98,2.14-1.03c0.86-0.06,1.61,0.2,2.25,0.77
	c0.64,0.58,0.98,1.3,1.03,2.16c0.05,0.84-0.21,1.59-0.79,2.23c-0.57,0.64-1.28,0.98-2.14,1.03c0.05,0.08,0.09,0.16,0.13,0.25
	c0.04,0.09,0.07,0.17,0.11,0.25l0.82,2.04L35.43,22.2z M19.82,29.31l3.56-2.6l-0.38-0.49c-0.16-0.19-0.29-0.39-0.4-0.62
	c-0.11-0.23-0.2-0.46-0.28-0.71l-2.98,2.74c-0.08,0.08-0.18,0.13-0.29,0.14c-0.12,0.02-0.22,0.01-0.32-0.02l-3.42-1.24
	c-0.19-0.08-0.38-0.08-0.57-0.01c-0.2,0.07-0.35,0.2-0.46,0.39c-0.05,0.09-0.07,0.2-0.07,0.32c0,0.12,0.02,0.22,0.05,0.32
	c0.05,0.11,0.11,0.2,0.19,0.28c0.08,0.08,0.17,0.13,0.28,0.16L19,29.49l0.09,0.05c0.11,0.02,0.23,0.01,0.35-0.02
	c0.12-0.03,0.23-0.09,0.33-0.16L19.82,29.31z M15.6,16.6c-0.17,0-0.32-0.06-0.43-0.18c-0.12-0.12-0.18-0.26-0.18-0.43
	c0-0.17,0.06-0.32,0.18-0.43c0.12-0.12,0.26-0.18,0.43-0.18h2.32c0.17,0,0.32,0.06,0.43,0.18c0.12,0.12,0.18,0.26,0.18,0.43
	c0,0.17-0.06,0.32-0.18,0.43c-0.12,0.12-0.26,0.18-0.43,0.18H15.6z M14.99,22.93c0-0.17,0.06-0.32,0.18-0.43
	c0.12-0.12,0.26-0.18,0.43-0.18h2.32c0.17,0,0.32,0.06,0.43,0.18c0.12,0.12,0.18,0.26,0.18,0.43s-0.06,0.32-0.18,0.43
	c-0.12,0.12-0.26,0.18-0.43,0.18H15.6c-0.17,0-0.32-0.06-0.43-0.18C15.05,23.25,14.99,23.1,14.99,22.93z M35.59,24.36
	c0.06-0.05,0.11-0.1,0.15-0.16c0.04-0.06,0.06-0.13,0.06-0.21c0-0.16-0.05-0.29-0.15-0.4c-0.1-0.11-0.22-0.17-0.36-0.19l-3.47-0.45
	c-0.11-0.02-0.21-0.05-0.29-0.12c-0.09-0.06-0.15-0.15-0.2-0.26l-0.96-2.37c-0.05-0.14-0.11-0.27-0.2-0.4
	c-0.09-0.12-0.18-0.24-0.29-0.35c-0.09-0.09-0.16-0.21-0.2-0.35c-0.04-0.14-0.04-0.28-0.01-0.42c0.05-0.23,0.17-0.42,0.36-0.55
	c0.2-0.13,0.42-0.18,0.67-0.13l0.21,0.05c0.47,0.05,0.89-0.07,1.28-0.35s0.63-0.65,0.74-1.1c0-0.03,0-0.07,0.01-0.11
	c0.01-0.04,0.01-0.07,0.01-0.11c0.06-0.52-0.07-0.98-0.4-1.39c-0.33-0.41-0.75-0.64-1.27-0.69c-0.44-0.05-0.84,0.05-1.22,0.28
	c-0.38,0.23-0.63,0.56-0.77,0.98c-0.06,0.17-0.1,0.35-0.11,0.54c-0.01,0.19,0.02,0.38,0.08,0.56c0.03,0.16,0.03,0.31-0.01,0.47
	c-0.04,0.16-0.11,0.3-0.22,0.42c-0.2,0.23-0.47,0.38-0.79,0.43c-0.32,0.06-0.62,0-0.9-0.15c-0.61-0.33-1.23-0.63-1.87-0.9
	c-0.64-0.27-1.3-0.52-1.97-0.74l-0.35-0.12c-0.09-0.03-0.19-0.04-0.28-0.01c-0.09,0.02-0.18,0.07-0.26,0.15l-2.98,2.93
	c-0.11,0.09-0.17,0.21-0.18,0.36c-0.01,0.15,0.03,0.29,0.13,0.41c0.03,0.05,0.07,0.08,0.12,0.11c0.05,0.02,0.1,0.04,0.16,0.06
	c0.09,0.03,0.18,0.03,0.27,0c0.09-0.03,0.16-0.08,0.22-0.14l2.51-2.46c0.09-0.09,0.21-0.15,0.34-0.18c0.13-0.02,0.25,0,0.36,0.06
	l2.04,1.08c0.02,0,0.03,0,0.04,0.01c0.01,0.01,0.02,0.01,0.03,0.01c0.12,0.09,0.21,0.22,0.25,0.39c0.04,0.16,0.01,0.32-0.08,0.46
	l-2.09,3.19c-0.28,0.47-0.4,0.97-0.36,1.51c0.04,0.54,0.23,1.03,0.57,1.46l3,3.82c0.08,0.09,0.12,0.2,0.14,0.3
	c0.02,0.11,0,0.22-0.05,0.33l-2.11,4.59c-0.09,0.17-0.12,0.35-0.09,0.53c0.03,0.18,0.12,0.33,0.26,0.46
	c0.05,0.03,0.1,0.06,0.15,0.09c0.05,0.03,0.12,0.05,0.2,0.07l0.07,0.02c0.17,0.02,0.33-0.02,0.48-0.11
	c0.15-0.09,0.25-0.21,0.32-0.36l2.51-5.41c0.06-0.12,0.09-0.26,0.07-0.4c-0.02-0.14-0.06-0.27-0.14-0.4c-0.02,0-0.03-0.01-0.03-0.02
	c-0.01-0.02-0.02-0.03-0.04-0.05l-1.9-3.61c-0.05-0.09-0.07-0.19-0.07-0.29c0-0.1,0.02-0.2,0.07-0.29l1.76-3.07
	c0.03-0.06,0.07-0.11,0.12-0.15c0.05-0.04,0.09-0.07,0.14-0.11c0.16-0.06,0.31-0.07,0.47-0.01c0.16,0.06,0.27,0.15,0.35,0.29
	l0.89,1.83c0,0.02,0,0.03,0.01,0.03c0.01,0.01,0.01,0.02,0.01,0.04c0.03,0.08,0.08,0.15,0.15,0.21c0.07,0.06,0.14,0.1,0.22,0.12
	h0.05l4.2,0.54c0.08,0.02,0.15,0.01,0.22-0.01C35.46,24.44,35.53,24.41,35.59,24.36z"/>
</svg>
