<?xml version="1.0" encoding="utf-8"?>
<!-- Generator: Adobe Illustrator 23.0.2, SVG Export Plug-In . SVG Version: 6.00 Build 0)  -->
<svg version="1.2" baseProfile="tiny" id="Layer_1" xmlns="http://www.w3.org/2000/svg" xmlns:xlink="http://www.w3.org/1999/xlink"
	 x="0px" y="0px" viewBox="0 0 50 50" xml:space="preserve">
<g>
	<path d="M25,12.75c-6.76,0-12.25,5.5-12.25,12.25c0,6.75,5.5,12.25,12.25,12.25c6.75,0,12.25-5.5,12.25-12.25
		C37.25,18.24,31.75,12.75,25,12.75z M35.49,25c0,5.78-4.7,10.49-10.49,10.49S14.51,30.78,14.51,25S19.22,14.51,25,14.51
		C30.78,14.51,35.49,19.22,35.49,25z"/>
	<path d="M25.88,24.12V17.1c0-0.49-0.4-0.88-0.88-0.88c-0.49,0-0.88,0.4-0.88,0.88V25c0,0.49,0.4,0.88,0.88,0.88h7.26
		c0.49,0,0.88-0.4,0.88-0.88c0-0.49-0.4-0.88-0.88-0.88H25.88z"/>
</g>
</svg>
