<?xml version="1.0" encoding="utf-8"?>
<!-- Generator: Adobe Illustrator 23.0.2, SVG Export Plug-In . SVG Version: 6.00 Build 0)  -->
<svg version="1.2" baseProfile="tiny" id="Layer_1" xmlns="http://www.w3.org/2000/svg" xmlns:xlink="http://www.w3.org/1999/xlink"
	 x="0px" y="0px" viewBox="0 0 50 50" xml:space="preserve">
<g>
	<path d="M32.02,28.71c-0.13,0-0.24,0.05-0.33,0.14c-0.08,0.09-0.13,0.2-0.13,0.31c0,0.13,0.04,0.24,0.13,0.33
		c0.09,0.09,0.19,0.13,0.33,0.13h2.77c0.13,0,0.24-0.04,0.33-0.13c0.09-0.08,0.13-0.19,0.13-0.33c0-0.11-0.04-0.22-0.13-0.31
		c-0.09-0.09-0.19-0.14-0.33-0.14H32.02z"/>
	<path d="M28.74,23.22c0.47,0.49,0.91,0.97,1.33,1.43c0.41,0.46,0.8,0.9,1.16,1.32c0.47,0.55,1.02,0.85,1.66,0.91
		c0.63,0.06,1.2-0.1,1.71-0.48c0.51-0.4,0.81-0.9,0.89-1.5c0.09-0.6-0.09-1.17-0.52-1.7c-0.08-0.09-0.45-0.56-1.12-1.39
		c-0.67-0.83-1.17-1.44-1.51-1.84c-0.34-0.4-0.67-0.76-0.98-1.09c-0.31-0.33-0.62-0.64-0.92-0.92c-0.64-0.64-1.25-1.13-1.81-1.46
		s-1.1-0.5-1.61-0.5c-1.83,0-3.45,0-4.87,0c-1.42,0-2.63,0-3.65,0l0.14-0.23c0.09-0.19,0.12-0.38,0.07-0.58
		c-0.05-0.2-0.17-0.34-0.35-0.44l-2.86-1.67c-0.19-0.09-0.38-0.11-0.57-0.06c-0.19,0.06-0.34,0.17-0.45,0.34l-3.88,6.71
		c-0.09,0.17-0.11,0.35-0.06,0.55c0.06,0.2,0.17,0.34,0.34,0.44l2.89,1.67c0.17,0.09,0.35,0.12,0.55,0.07
		c0.2-0.05,0.34-0.16,0.44-0.35l0.34-0.54c0.19,0.23,0.4,0.46,0.64,0.71c0.24,0.25,0.49,0.51,0.75,0.79c0.45,0.47,1,0.85,1.63,1.15
		c0.63,0.29,1.26,0.44,1.88,0.44h4.7c0.17,0,0.31,0,0.42,0c0.11,0,0.22,0,0.31,0h0.99h0.03c0.55,0,1.03-0.17,1.46-0.51
		C28.33,24.15,28.6,23.73,28.74,23.22z M13.99,21.61l-2.24-1.3l3.51-6.06l2.21,1.27L13.99,21.61z M27.32,23.53
		c-0.25,0.25-0.55,0.37-0.91,0.37h-3.85h-2.58c-0.47,0-0.95-0.11-1.44-0.34c-0.49-0.23-0.92-0.53-1.27-0.91
		c-0.32-0.34-0.61-0.66-0.88-0.95c-0.26-0.29-0.51-0.56-0.74-0.81l2.18-3.79h9.17c0.32,0,0.71,0.14,1.16,0.42
		c0.45,0.28,0.96,0.69,1.53,1.22c0.26,0.26,0.55,0.56,0.85,0.88c0.3,0.32,0.61,0.67,0.93,1.05c0.34,0.4,0.84,1.01,1.5,1.84
		s1.04,1.3,1.13,1.41c0.23,0.26,0.32,0.54,0.28,0.83c-0.04,0.29-0.2,0.54-0.48,0.75c-0.28,0.21-0.59,0.3-0.93,0.27
		c-0.34-0.03-0.65-0.21-0.93-0.55c-0.51-0.58-1.08-1.22-1.71-1.91c-0.63-0.69-1.32-1.41-2.05-2.16c-0.21-0.28-0.48-0.51-0.81-0.68
		c-0.33-0.17-0.68-0.25-1.06-0.25h-3.71c-0.15,0-0.28,0.06-0.38,0.17c-0.1,0.11-0.16,0.25-0.16,0.4c0,0.15,0.05,0.28,0.16,0.38
		c0.1,0.1,0.23,0.16,0.38,0.16h3.71c0.19,0,0.37,0.04,0.54,0.13c0.17,0.09,0.31,0.19,0.42,0.33l0.03,0.03
		c0.09,0.11,0.16,0.24,0.21,0.38c0.05,0.14,0.07,0.29,0.07,0.44C27.69,22.98,27.57,23.29,27.32,23.53z"/>
	<path d="M39.01,34.09c-0.3-0.72-0.72-1.35-1.26-1.9s-1.17-0.99-1.91-1.33c-0.72-0.32-1.49-0.49-2.32-0.51
		c-0.85-0.02-1.65,0.14-2.41,0.48c-0.75,0.32-1.41,0.76-1.97,1.33c-0.56,0.57-1,1.23-1.32,1.98c-0.34,0.75-0.51,1.56-0.51,2.41
		c0,0.13,0.04,0.24,0.13,0.33c0.09,0.09,0.19,0.13,0.33,0.13h11.29c0.11,0,0.21-0.04,0.3-0.13c0.09-0.09,0.13-0.19,0.13-0.33v-0.11
		C39.49,35.6,39.33,34.82,39.01,34.09z M38.27,35.83c-0.04,0.05-0.09,0.07-0.14,0.07h-9.45c-0.06,0-0.1-0.02-0.14-0.07
		c-0.04-0.05-0.06-0.1-0.06-0.16c0.19-1.19,0.74-2.19,1.67-3c0.92-0.81,2.01-1.22,3.25-1.22c1.25,0,2.33,0.41,3.25,1.22
		c0.92,0.81,1.48,1.81,1.67,3C38.33,35.73,38.31,35.78,38.27,35.83z"/>
</g>
</svg>
