<?xml version="1.0" encoding="utf-8"?>
<!-- Generator: Adobe Illustrator 23.0.2, SVG Export Plug-In . SVG Version: 6.00 Build 0)  -->
<svg version="1.2" baseProfile="tiny" id="Layer_1" xmlns="http://www.w3.org/2000/svg" xmlns:xlink="http://www.w3.org/1999/xlink"
	 x="0px" y="0px" viewBox="0 0 48 48" xml:space="preserve">
<g>
	<path id="XMLID_1_" fill="#91AE59" d="M33.8227577,32.2203178c-1.8719597,1.5804482-4.2906818,2.5336342-6.9323978,2.5336342
		c-5.9387722,0-10.7530975-4.8143272-10.7530975-10.7530975s4.8143253-10.7531052,10.7530975-10.7531052
		c2.641716,0,5.0604382,0.9531927,6.9323978,2.5336409l4.7677422-4.7677412
		c-2.2006073-1.983798-4.9080353-3.415648-7.9043331-4.0793109V0l-7.4531574,3.5554292v3.3489621
		C15.334549,8.5859289,9.4095001,15.6009426,9.4095001,24.0008545c0,8.3999023,5.9250488,15.4149246,13.8235092,17.0964622V48
		l7.4531574-3.5554276v-3.3772049c2.9963055-0.663662,5.7037258-2.0955124,7.9043331-4.0793114L33.8227577,32.2203178z"/>
</g>
</svg>
