<?xml version="1.0" encoding="utf-8"?>
<!-- Generator: Adobe Illustrator 23.0.2, SVG Export Plug-In . SVG Version: 6.00 Build 0)  -->
<svg version="1.2" baseProfile="tiny" id="Layer_1" xmlns="http://www.w3.org/2000/svg" xmlns:xlink="http://www.w3.org/1999/xlink"
	 x="0px" y="0px" viewBox="0 0 48 48" xml:space="preserve">
<g>
	<g>
		<path fill="#91AE59" d="M45.7239037,25.5774803l-5.627037-21.1676426c-0.2117767-0.7966623-1.029274-1.2708099-1.825943-1.0590434
			L17.1046963,8.9771137c-0.7966671,0.2117662-1.2708263,1.0292568-1.0590706,1.8259258l5.6255836,21.1647377
			c0.2117367,0.7966042,1.0291119,1.2707748,1.8257427,1.0591431l21.1676826-5.623415
			C45.4614296,27.1918278,45.9357071,26.3742409,45.7239037,25.5774803z M27.0805073,9.4117079l1.1876488,4.4667816
			c0.2117386,0.796361,1.0290623,1.2701998,1.825367,1.0582466l0.0000019-0.000001
			c0.795969-0.2118635,1.2695904-1.0287533,1.0579872-1.8247919l-1.1871395-4.4659672l6.188406-1.6454687
			c0.7966652-0.2118297,1.614212,0.2622781,1.8260307,1.0589447l4.0946121,15.3999748
			c0.2118378,0.7967243-0.2623634,1.6143131-1.0591125,1.8260593l-15.3991375,4.0924911
			c-0.7966614,0.2117214-1.6141224-0.2624454-1.8258781-1.0590992l-4.0932636-15.3994341
			c-0.2117519-0.7966366,0.2623596-1.6141052,1.0589809-1.8259115L27.0805073,9.4117079z M47.9495621,32.2520294
			l-0.0000038-0.0000038c-0.2116776-0.7963638-1.0288582-1.2703476-1.825222-1.0586739L23.802227,37.1265411
			c-1.0883617-2.0182953-3.2221737-3.3921547-5.67202-3.3921547c-0.0561085,0-0.1113911,0.0065994-0.1666775,0.0082512
			L10.7237425,6.5006113L2.2400129,1.5801207C1.5275122,1.1668764,0.6149175,1.4094285,0.2016109,2.1218932L0.2016094,2.1218956
			C-0.2117464,2.834445,0.0308379,3.7471731,0.7434207,4.160471l7.414959,4.3006763l6.9212809,26.0439186
			c-2.0945234,1.1312485-3.4965477,3.3893661-3.385129,5.9580498c0.1425743,3.286972,2.8430805,5.9973221,6.1295481,6.1510963
			c3.6924419,0.1727753,6.750473-2.7820358,6.750473-6.4363022c0-0.0561104-0.0074253-0.1105728-0.009079-0.1658516
			l22.325449-5.9347992C47.6872749,33.8655624,48.1612396,33.0483856,47.9495621,32.2520294z M18.1310291,43.6360703
			c-1.9085503,0-3.459816-1.5512619-3.459816-3.458168c0-1.9085541,1.5520916-3.459816,3.459816-3.459816
			s3.458992,1.5520859,3.458992,3.459816C21.5900211,42.0848083,20.0379314,43.6360703,18.1310291,43.6360703z"/>
	</g>
</g>
</svg>
