<?xml version="1.0" encoding="utf-8"?>
<!-- Generator: Adobe Illustrator 23.0.2, SVG Export Plug-In . SVG Version: 6.00 Build 0)  -->
<svg version="1.2" baseProfile="tiny" id="Layer_1" xmlns="http://www.w3.org/2000/svg" xmlns:xlink="http://www.w3.org/1999/xlink"
	 x="0px" y="0px" viewBox="0 0 48 48" xml:space="preserve">
<path fill="#91AE59" d="M39.6763,0H8.3237009C3.7266648,0,0,3.7266393,0,8.3236752v6.6589098v4.1618509V39.6763
	C0,44.2733345,3.7266648,48,8.3237009,48H39.6763C44.2733612,48,48,44.2733345,48,39.6763V8.3236752
	C48,3.7266393,44.2733612,0,39.6763,0z M4.1618505,8.3236752c0-2.2948346,1.8670158-4.1618247,4.1618505-4.1618247H39.6763
	c2.2948341,0,4.16185,1.8669901,4.16185,4.1618247v6.6589098H4.16185C4.16185,14.982585,4.16185,8.3236752,4.1618505,8.3236752z
	 M39.6763,43.83815H8.3237009c-2.2948346,0-4.1618505-1.8670158-4.1618505-4.16185V19.1444359h39.6763V39.6763
	C43.83815,41.9711342,41.9711342,43.83815,39.6763,43.83815z"/>
</svg>
