<?xml version="1.0" encoding="utf-8"?>
<!-- Generator: Adobe Illustrator 23.0.2, SVG Export Plug-In . SVG Version: 6.00 Build 0)  -->
<svg version="1.2" baseProfile="tiny" id="Layer_1" xmlns="http://www.w3.org/2000/svg" xmlns:xlink="http://www.w3.org/1999/xlink"
	 x="0px" y="0px" viewBox="0 0 48 48" xml:space="preserve">
<g>
	<g>
		<path fill="#91AE59" d="M25.1045322,2.8565288h-12.499732C5.6544003,2.8565288,0,8.515728,0,15.4725294v3.3023996
			c0,5.3840008,3.3936,10.155201,8.4591999,11.9125328c-0.6565328,1.1487999-1.5349336,2.9077339-2.6815996,5.3701324
			c-0.2336001,0.499733-0.1296,1.0997314,0.2607999,1.4928017c0.2458668,0.2458687,0.5898671,0.3871994,0.9445333,0.3871994
			c0.1887999,0,0.3770671-0.041069,0.5418673-0.1178665l14.0543976-6.4282665h3.5248013
			c6.9503975,0,12.6048012-5.6597328,12.6048012-12.6165333v-3.3023996
			C37.7093353,8.515728,32.0549316,2.8565288,25.1045322,2.8565288z M11.3696003,31.0197277
			c0.3370667-0.2112007,0.5594664-0.5578671,0.6101341-0.9535999c0.0901337-0.7018681-0.3856001-1.3487988-1.0842676-1.4725342
			c-4.7797332-0.8362675-8.2485332-4.9653339-8.2485332-9.8181324v-3.3024006c0-5.4970665,4.4671998-9.9696007,9.9584007-9.9696007
			h12.4991999c5.4912014,0,9.9584007,4.4725337,9.9584007,9.9696007v3.3024006c0,5.4970665-4.4671993,9.9696007-9.9584007,9.9696007
			h-3.8127975c-0.1877346,0-0.3776016,0.0410652-0.5504017,0.1199989L9.7786684,33.8794632
			C10.517333,32.4223938,11.092267,31.389328,11.3696003,31.0197277z"/>
		<path fill="#91AE59" d="M37.7322655,10.2954626c0.385067,0.9376001,0.6688004,1.9274673,0.8378677,2.9557333
			c4.029335,1.3551998,6.7834663,5.1269321,6.7834663,9.4277344v3.3024006c0,4.8527985-3.4687958,8.9818649-8.2490654,9.8181343
			c-0.6976013,0.1226692-1.1738663,0.770134-1.0837326,1.4725342c0.0506668,0.3957329,0.2730675,0.7424011,0.6101303,0.9530678
			c0.2794685,0.373333,0.8538666,1.4058685,1.5914688,2.8597336l-10.9616013-5.0133324
			c-0.1711998-0.0789375-0.3621349-0.120533-0.552-0.120533h-3.8127995c-1.9066677,0-3.7360001-0.5418663-5.3370667-1.5727997
			l-2.7493324,1.2576027c2.2682667,1.907196,5.1258659,2.9615974,8.0863991,2.9615974h3.5248013l14.0527973,6.4282684
			c0.1669388,0.0767975,0.3552017,0.1178665,0.5439987,0.1178665c0.3546677,0,0.6991997-0.1413307,0.9461365-0.3882637
			c0.3887978-0.3930664,0.4928017-0.9920006,0.2597313-1.4911995c-1.1450691-2.459198-2.0234642-4.218132-2.6821327-5.3701324
			C44.6058693,36.1354599,48,31.3642597,48,25.981329v-3.3024025C48,16.585062,43.6933365,11.4175959,37.7322655,10.2954626z"/>
		<path fill="#91AE59" d="M9.4096003,14.602663c-1.5434666,0-2.7994676,1.2559996-2.7994676,2.7994652
			c0,1.5440006,1.2554669,2.8000011,2.7994676,2.8000011c1.5434656,0,2.7994661-1.2560005,2.7994661-2.8000011
			C12.2090664,15.8586626,10.9530668,14.602663,9.4096003,14.602663z"/>
		<path fill="#91AE59" d="M28.2997341,14.602663c-1.5434685,0-2.7994671,1.2559996-2.7994671,2.7994652
			c0,1.5440006,1.2554665,2.8000011,2.7994671,2.8000011c1.5439987,0,2.7994671-1.2560005,2.7994671-2.8000011
			C31.0992012,15.8586626,29.8432007,14.602663,28.2997341,14.602663z"/>
		<path fill="#91AE59" d="M18.8549328,14.602663c-1.5434666,0-2.7994652,1.2559996-2.7994652,2.7994652
			c0,1.5440006,1.2554665,2.8000011,2.7994652,2.8000011c1.5434685,0,2.7994671-1.2560005,2.7994671-2.8000011
			C21.6538677,15.8586626,20.3984013,14.602663,18.8549328,14.602663z"/>
	</g>
</g>
</svg>
