<?xml version="1.0" encoding="utf-8"?>
<!-- Generator: Adobe Illustrator 23.0.2, SVG Export Plug-In . SVG Version: 6.00 Build 0)  -->
<svg version="1.2" baseProfile="tiny" id="Layer_1" xmlns="http://www.w3.org/2000/svg" xmlns:xlink="http://www.w3.org/1999/xlink"
	 x="0px" y="0px" viewBox="0 0 48 48" xml:space="preserve">
<g>
	<g>
		<path fill="#91AE59" d="M6.2095804,14.5799389c-1.0458426,0.6856194-1.3378634,2.0891972-0.6522436,3.1350403
			c2.6633568,3.7863846,2.6633568,8.8371105,0,12.6234951c-0.2732944,0.3888321-0.4173698,0.8538113-0.4117036,1.3290882
			C5.16049,32.9180145,6.186224,33.919632,7.4366746,33.904705c0.7247996-0.0069809,1.4024024-0.3605003,1.8228126-0.9509659
			c3.7666922-5.3511772,3.7666922-12.4915142,0-17.8426895C8.5415287,14.1581469,7.2073288,13.9257603,6.2095804,14.5799389z"/>
		<path fill="#91AE59" d="M17.9150009,10.3600836c-0.7523708-0.9989233-2.1720495-1.1988316-3.1709728-0.4465303
			c-0.9989233,0.7523708-1.1988316,2.1720495-0.4465303,3.1709728c4.1410112,6.7030659,4.1410112,15.1700726,0,21.8731384
			c-0.2199478,0.3565598-0.3366594,0.7672272-0.3371429,1.1862564c-0.0013819,1.2505188,1.0112915,2.2654037,2.2618113,2.2667885
			c0.7735157,0.0113983,1.4992828-0.3728714,1.9246693-1.0189629c5.0494118-8.1660728,5.0494118-18.4847069,0-26.6507797
			C18.0822945,10.6067047,18.0046253,10.4791441,17.9150009,10.3600836z"/>
		<path fill="#91AE59" d="M27.128643,5.7932725c-0.7097359-1.029604-2.1197414-1.28894-3.1494141-0.5792041
			c-1.029604,0.7097354-1.2889385,2.11974-0.5792046,3.1493435c5.661026,9.6871214,5.661026,21.6735077,0,31.3605614
			c-0.1964531,0.3402519-0.3010025,0.7256966-0.3033524,1.1186028c-0.0075321,1.2505226,1.0000973,2.2703133,2.250618,2.2778435
			c0.7966633,0.0110588,1.5404663-0.3973999,1.9586658-1.0755539c6.4919643-11.1025162,6.4919643-24.8431664,0-35.9457512
			C27.2548904,5.9926977,27.1956005,5.8904972,27.128643,5.7932725z"/>
		<path fill="#91AE59" d="M33.7252235,0.3025124c-1.0879936,0.6252943-1.4630737,2.014154-0.83778,3.1021481
			c7.2446823,12.7774534,7.2446823,28.4213505,0,41.1988754c-0.2002525,0.3468857-0.3049431,0.7406921-0.3033524,1.141201
			c0.0049744,1.2505188,1.0227623,2.2602196,2.2732811,2.2552452c0.8216133-0.0059433,1.575573-0.4565506,1.9699326-1.1774101
			c8.0362968-14.167141,8.0362968-31.5151367,0-45.682209C36.2020073,0.0523671,34.8132172-0.3227127,33.7252235,0.3025124z"/>
	</g>
</g>
</svg>
