<?xml version="1.0" encoding="utf-8"?>
<!-- Generator: Adobe Illustrator 23.0.2, SVG Export Plug-In . SVG Version: 6.00 Build 0)  -->
<svg version="1.2" baseProfile="tiny" id="Layer_1" xmlns="http://www.w3.org/2000/svg" xmlns:xlink="http://www.w3.org/1999/xlink"
	 x="0px" y="0px" viewBox="0 0 154.9487762 36.5434875" xml:space="preserve">
<g>
	<g>
		<g>
			<g>
				<path fill="#ffffff" d="M17.1646519,20.8572559v7.1503487c0,4.7091694-3.8184671,8.5358829-8.5358829,8.5358829l0,0
					c-4.7998867,0-8.6843319-3.8844452-8.6843319-8.6843319l0,0c0-4.7091675,3.8184671-8.535881,8.535882-8.535881h7.1420994
					C16.4718819,19.3150234,17.1646519,20.0077896,17.1646519,20.8572559z"/>
				<path fill="#ffffff" d="M24.8015823,8.6018734L24.8015823,8.6018734c0,4.7586508-3.8514557,8.6101074-8.6101055,8.6101074
					H9.1236019c-0.8494654,0-1.5339856-0.6845207-1.5339856-1.5339861V8.6101198
					c0-4.7586503,3.8514562-8.6101065,8.6101074-8.6101065l0,0C20.9418812-0.0082336,24.8015823,3.8514695,24.8015823,8.6018734z"/>
			</g>
		</g>
	</g>
	<g>
		<path fill="#ffffff" d="M40.3189888,8.2562733h4.6355209v20.030941h-4.6355209V8.2562733z"/>
		<path fill="#ffffff" d="M69.9642029,8.2562733v20.030941h-3.8050995l-9.9862976-12.1616154v12.1616154h-4.5794525V8.2562733
			h3.8354073l9.9575081,12.1616154V8.2562733H69.9642029z"/>
		<path fill="#ffffff" d="M90.1383514,17.9569244h4.2354584v8.1269379
			c-1.0880356,0.8205738-2.3473053,1.4502125-3.7778168,1.8889122c-1.4305115,0.4379425-2.8716354,0.657671-4.3203278,0.657671
			c-2.0790863,0-3.9490585-0.4432468-5.6083908-1.3304958c-1.6593323-0.8872509-2.9625473-2.117733-3.9066238-3.6914463
			s-1.4168777-3.3527603-1.4168777-5.3363819c0-1.9843788,0.4728012-3.7634249,1.4168777-5.3371382
			s2.2563858-2.8041954,3.9354172-3.6914454c1.6775131-0.8872499,3.5671844-1.3304963,5.6659775-1.3304963
			c1.7547989,0,3.3474503,0.2962546,4.7779617,0.8872504c1.4305115,0.5909948,2.6322021,1.4494524,3.605072,2.5753736
			l-2.974678,2.7466116c-1.4320221-1.5062799-3.1580353-2.2601776-5.1795349-2.2601776
			c-1.2789764,0-2.4139938,0.2674637-3.4050446,0.8008747c-0.992569,0.5341682-1.7654037,1.2880659-2.3185196,2.2609339
			c-0.5531082,0.9728689-0.8304214,2.0889397-0.8304214,3.3482132c0,1.2403316,0.2773132,2.3457966,0.8304214,3.3194218
			c0.5531158,0.9728699,1.3214035,1.7305546,2.3033676,2.2745743c0.9819641,0.5440178,2.1033325,0.8152695,3.3626099,0.8152695
			c1.3350449,0,2.5367355-0.2856483,3.605072-0.8584576V17.9569244z"/>
		<path fill="#ffffff" d="M113.3159561,28.2872143l-3.8626785-5.5803566h-0.2288208h-4.0354385v5.5803566h-4.6355209V8.2562733
			h8.6709595c1.774498,0,3.3141174,0.2962551,4.6218796,0.8872499c1.3062515,0.591753,2.3124619,1.4305105,3.0186234,2.5177898
			c0.7046432,1.0880375,1.0592422,2.3753452,1.0592422,3.8634405s-0.3576279,2.7708569-1.0743942,3.8490448
			c-0.7152557,1.0774288-1.7305603,1.9025478-3.0474167,2.4746017l4.4930801,6.4388142H113.3159561z M112.1430588,12.9349833
			c-0.7243423-0.6008453-1.7835922-0.9016466-3.1762161-0.9016466h-3.7778244v6.9828339h3.7778244
			c1.3926239,0,2.4518738-0.3053474,3.1762161-0.9160423c0.72435-0.6099377,1.0880356-1.4683952,1.0880356-2.5753746
			C113.2310944,14.3995895,112.8674088,13.5358276,112.1430588,12.9349833z"/>
		<path fill="#ffffff" d="M123.4750061,8.2562733h4.6355286v20.030941h-4.6355286V8.2562733z"/>
		<path fill="#ffffff" d="M134.7478638,8.2562733h9.0998077c2.1745605,0,4.0975647,0.4152117,5.7659912,1.2448778
			c1.6699371,0.8296661,2.9670868,1.9987755,3.8914642,3.5058126c0.9258881,1.5070372,1.3880768,3.261837,1.3880768,5.2651577
			c0,2.0025654-0.4621887,3.7581234-1.3880768,5.2651596c-0.9243774,1.5070381-2.2215271,2.6753883-3.8914642,3.5050545
			c-1.6684265,0.8296661-3.5914307,1.2448788-5.7659912,1.2448788h-9.0998077V8.2562733z M143.6188507,24.4813576
			c2.0033112,0,3.6005249-0.5576572,4.7931213-1.673727c1.1925964-1.1160717,1.7881317-2.627655,1.7881317-4.5355091
			s-0.5955353-3.4201927-1.7881317-4.5355062c-1.1925964-1.1160717-2.7898102-1.6744862-4.7931213-1.6744862h-4.2354736v12.4192286
			H143.6188507z"/>
	</g>
</g>
</svg>
